<?xml version="1.0" encoding="UTF-8"?>
<svg id="_レイヤー_1" data-name="レイヤー_1" xmlns="http://www.w3.org/2000/svg" viewBox="0 0 200 200">
  <path d="M30.67,189.5c-2.66,0-3.62-1.69-3.62-3.62,0-1.69,1.21-4.11,2.9-5.32,16.43-1.21,18.61-2.42,20.54-10.39,1.45-5.56,1.45-24.89,1.45-49.53v-47.36c0-24.89-.48-38.9-1.69-44.7-1.21-5.32-4.11-8.22-21.51-8.22-1.45-1.21-2.42-3.62-2.42-5.56,0-1.69.97-3.38,3.38-3.38h73.22c34.55,0,59.44,13.29,59.44,41.56,0,26.1-21.02,39.39-37.94,42.77,21.51,2.42,48.33,16.43,48.33,44.7,0,40.84-40.11,49.05-65.24,49.05H30.67ZM98.33,90.91c14.5,0,41.56-5.07,41.56-36.49,0-17.64-15.71-32.14-43.01-32.14-18.12,0-22.71,1.45-23.2,4.35-1.21,7.49-1.21,14.26-1.21,35.52v26.82c0,1.45.48,1.93,7.25,1.93h18.61ZM78.51,101.79c-5.07,0-6.04.48-6.04,2.42v38.18c0,31.17,1.69,36.73,31.65,36.73,28.03,0,45.91-15.22,45.91-37.45s-12.81-39.87-53.64-39.87h-17.88Z"/>
</svg>