<?xml version="1.0" encoding="UTF-8"?>
<svg id="_レイヤー_1" data-name="レイヤー_1" xmlns="http://www.w3.org/2000/svg" viewBox="0 0 858 155">
  <path d="M6.36,141.91c-1.86,0-2.53-1.18-2.53-2.53,0-1.18.84-2.87,2.03-3.72,11.49-.84,13.01-1.69,14.36-7.26,1.01-3.88,1.01-17.4,1.01-34.63v-33.11c0-17.4-.34-27.2-1.18-31.25-.84-3.72-2.87-5.74-15.03-5.74-1.01-.84-1.69-2.53-1.69-3.89,0-1.18.68-2.36,2.36-2.36h51.18c24.15,0,41.55,9.29,41.55,29.05,0,18.24-14.7,27.53-26.52,29.9,15.03,1.69,33.78,11.49,33.78,31.25,0,28.55-28.04,34.29-45.61,34.29H6.36ZM53.66,72.99c10.14,0,29.05-3.55,29.05-25.51,0-12.33-10.98-22.47-30.07-22.47-12.67,0-15.88,1.01-16.22,3.04-.84,5.24-.84,9.97-.84,24.83v18.75c0,1.01.34,1.35,5.07,1.35h13.01ZM39.81,80.59c-3.55,0-4.22.34-4.22,1.69v26.69c0,21.79,1.18,25.68,22.13,25.68,19.59,0,32.09-10.64,32.09-26.18s-8.95-27.87-37.5-27.87h-12.5Z"/>
  <path d="M122.24,141.91c-1.69,0-2.2-1.01-2.2-2.03s.68-2.37,1.69-3.21c8.95-1.18,10.14-2.53,10.3-6.25.51-6.93.68-13.34.68-20.44V32.79c0-8.61-.17-8.61-9.29-11.65-.68-.51-1.18-1.18-1.18-1.69,0-.68.51-1.52,1.01-2.2,7.77-1.69,17.23-4.56,21.45-6.25,1.35,0,3.04.17,3.04,2.36v.34c-1.01,16.22-1.69,32.6-1.69,50v46.28c0,7.77.17,15.54.51,20.44.34,4.22,2.53,6.08,11.49,6.08.84.85,1.35,2.03,1.35,2.87,0,1.35-.84,2.53-1.86,2.53h-35.3Z"/>
  <path d="M228.83,128.39c-6.25,9.46-16.22,15.37-26.86,15.37-23.31,0-24.83-21.11-24.83-34.12v-36.32c0-4.22-.17-5.24-8.61-6.25-.51-.68-.84-2.03-.84-2.87,0-1.01.34-2.2,1.35-2.36,7.94-1.18,14.53-2.7,18.92-4.9,1.86,0,3.55.51,3.55,2.7v.34c-.34,8.95-.68,12.5-.68,24.49v24.49c0,12.16,1.01,26.01,15.54,26.01,11.99,0,22.63-10.3,22.63-22.97v-38.68c0-4.39-.51-5.24-9.63-6.25-.68-.84-1.01-2.03-1.01-3.04,0-.84.34-1.86,1.35-2.2,9.46-1.18,15.88-2.7,19.93-4.9,1.86,0,3.72.51,3.55,3.04-.34,8.95-.68,12.5-.68,24.49v36.82c0,11.49.17,12.16,9.97,13.01.34.84.51,1.86.51,2.53s-.17,1.52-.51,2.37c-9.12,1.69-14.19,2.53-21.28,4.56-1.35-2.2-2.03-7.09-2.03-15.88l-.34.51Z"/>
  <path d="M282.88,94.78c-1.35,0-1.86.68-1.86,4.39,0,30.41,19.43,35.13,29.22,35.13s17.9-4.73,21.79-8.78c.51-.51,1.01-.68,1.52-.68.68,0,1.69.51,2.2,1.35.68.67,1.52,2.03,1.52,3.71-4.22,5.41-14.36,14.36-31.42,14.36-21.11,0-39.19-14.36-39.19-42.4,0-21.96,14.36-45.1,38.68-45.1,19.09,0,32.94,16.72,32.94,32.94,0,2.7-1.01,5.07-2.87,5.07h-52.53ZM324.26,87.52c.34,0,.68-.17.68-1.35,0-12.5-9.46-22.3-19.43-22.3-14.7,0-21.96,14.36-23.14,22.8,0,.68,0,.85.68.85h41.21Z"/>
  <path d="M539.97,61c1.35,0,2.03.84,2.03,1.86s-.68,2.36-1.52,3.04c-5.91.84-7.26,1.69-9.46,7.43-6.59,17.74-16.22,44.59-25.51,68.41-1.01,2.53-2.53,4.05-5.41,4.05-2.2,0-3.38-1.18-4.39-4.05-5.41-14.53-14.7-38.68-21.11-56.75-5.57,16.72-11.99,35.81-19.59,56.75-1.01,2.53-2.2,4.05-5.74,4.05-2.2,0-3.38-1.86-4.22-4.05-7.26-18.75-21.79-54.22-27.36-68.41-2.37-6.08-3.72-6.42-10.47-7.43-.84-.68-1.52-2.03-1.52-3.04s.68-1.86,2.03-1.86h34.8c1.69,0,2.03.84,2.03,1.86,0,.84-.51,2.2-1.52,3.04-5.74.34-11.15,1.35-11.15,5.4v.17c4.73,14.02,14.36,39.19,20.95,55.74,6.59-18.75,15.03-45.1,17.23-55.4-1.35-4.73-2.53-4.9-11.99-5.91-.84-.84-1.52-2.2-1.52-3.04,0-1.01.68-1.86,2.03-1.86h34.8c1.69,0,2.03.84,2.03,1.86,0,.84-.51,2.2-1.52,3.04-6.25.34-10.98,1.01-10.98,4.9v.68c4.9,14.02,14.36,39.36,20.95,55.57,11.99-31.08,18.07-53.04,18.07-56.42,0-3.04-3.21-3.71-12.5-4.73-.84-.84-1.69-2.2-1.69-3.04,0-1.01.84-1.86,2.2-1.86h30.07Z"/>
  <path d="M549.94,101.03c0-22.3,15.54-44.26,39.69-44.26s38.68,22.13,38.68,44.26-15.54,43.24-39.69,43.24-38.68-21.96-38.68-43.24ZM612.95,99.85c0-16.72-5.57-35.81-24.32-35.81-16.05,0-23.14,19.26-23.14,35.81,0,17.74,5.41,36.65,24.15,36.65,16.05,0,23.31-18.92,23.31-36.65Z"/>
  <path d="M642.51,141.91c-1.35,0-2.03-1.01-2.03-2.03s.68-2.53,1.52-3.38c9.29-1.01,9.97-2.2,10.64-6.08.84-5.24.84-9.97.84-18.58v-33.28c0-8.11-.68-8.61-8.78-10.98-.68-.84-1.01-1.69-1.01-2.53,0-.68.34-1.52,1.18-2.03,6.93-1.69,13.34-4.22,17.4-5.91,2.2,0,3.21,1.52,3.21,3.89v11.49c5.24-8.28,15.03-16.22,21.96-16.22,4.22,0,12.5,1.35,12.5,10.98,0,4.05-2.7,9.12-8.28,9.12-5.24,0-7.43-4.22-7.94-7.94-.17-1.01-.68-1.52-1.69-1.52-3.72,0-15.88,6.59-15.88,22.63v31.42c0,14.02,1.01,15.54,16.22,15.54.84.85,1.18,2.03,1.18,2.87,0,1.35-.84,2.53-1.86,2.53h-39.19Z"/>
  <path d="M708.05,141.91c-1.69,0-2.2-1.01-2.2-2.03s.68-2.37,1.69-3.21c8.95-1.18,10.13-2.53,10.3-6.25.51-6.93.68-13.34.68-20.44V32.79c0-8.61-.17-8.61-9.29-11.65-.67-.51-1.18-1.18-1.18-1.69,0-.68.51-1.52,1.01-2.2,7.77-1.69,17.23-4.56,21.45-6.25,1.35,0,3.04.17,3.04,2.36v.34c-1.01,16.22-1.69,32.6-1.69,50v46.28c0,7.77.17,15.54.51,20.44.34,4.22,2.53,6.08,11.49,6.08.84.85,1.35,2.03,1.35,2.87,0,1.35-.84,2.53-1.86,2.53h-35.3Z"/>
  <path d="M829.84,120.96c0,11.49.68,12.16,10.64,13.17.34.84.51,1.69.51,2.53,0,.68-.17,1.69-.68,2.53-8.95,1.69-14.36,2.53-21.28,4.56-1.69-2.03-2.03-4.73-2.2-13.01-4.9,6.92-15.03,13.51-25.17,13.51-25.67,0-35.3-20.78-35.3-41.55s11.15-44.59,38.34-44.59c7.94,0,15.88,2.87,21.45,6.76.17.17.17.34.34.34.17-.17.17-.68.17-1.52v-30.74c0-8.61-.17-8.61-9.46-11.65-.68-.51-1.18-1.18-1.18-1.86s.51-1.52,1.01-2.2c7.77-1.69,17.06-4.56,21.45-6.25,1.35,0,3.04.17,3.04,2.36v.34c-1.01,16.22-1.69,30.4-1.69,48.14v59.12ZM817,93.26c0-6.08-.17-14.19-1.18-17.23-1.35-4.22-9.63-10.64-19.59-10.64-16.05,0-25.17,16.05-25.17,35.3,0,15.37,4.22,34.29,22.97,34.29,7.77,0,15.54-2.7,20.95-12.84,1.18-3.55,2.03-10.64,2.03-20.44v-8.45Z"/>
</svg>