<svg width="95" height="105" viewBox="0 0 95 105" fill="none" xmlns="http://www.w3.org/2000/svg">
<path d="M56.8844 15.2479C55.4018 15.9718 54.0979 16.5109 53.1232 16.8546C52.642 17.0342 52.2371 17.1477 51.9621 17.2346C51.6871 17.3215 51.5303 17.3581 51.5303 17.3581C51.991 17.3021 51.6646 16.1776 52.3731 13.9733C52.8045 12.6383 54.9273 11.3861 57.0842 10.7507C57.6264 10.5978 58.1589 10.469 58.6598 10.3728C59.1666 10.2884 59.6297 10.2212 60.027 10.1795C60.8335 10.1199 61.3473 10.1116 61.3473 10.1116C61.3473 10.1116 61.2325 10.3545 61.0193 10.7312C60.8074 11.1129 60.488 11.6146 60.1096 12.1671C59.3342 13.2823 58.3383 14.5371 56.8858 15.253L56.8844 15.2479ZM57.2238 12.3604C56.9514 12.4869 56.6663 12.6061 56.3811 12.7252C56.0942 12.8476 55.8181 12.9804 55.5388 13.1114C54.9808 13.3653 54.4685 13.6795 54.04 14.025C53.573 14.4077 53.231 14.8752 52.9108 15.3342C52.5984 15.8019 52.3287 16.2984 52.0218 16.7566C52.9956 16.0397 53.4737 15.2483 54.3658 14.4673C55.1821 13.7441 56.428 13.0996 57.2238 12.3604Z" fill="url(#paint0_linear_16_28)"/>
<path d="M54.4498 21.5808C53.8699 21.013 53.4132 20.2537 52.6781 19.859C51.8654 19.4152 50.7568 19.4105 49.738 19.2501C50.4487 19.8044 51.3234 19.8985 52.1477 20.2855C52.9088 20.6572 53.6217 21.3399 54.453 21.5826L54.4498 21.5808ZM51.302 22.6393C50.3727 21.8317 49.8067 20.9459 49.4928 20.2479C49.1771 19.5531 49.1116 19.0494 49.1116 19.0494C49.1049 19.2446 49.4428 19.1516 50.1057 18.988C50.4362 18.9077 50.847 18.806 51.3234 18.7083C51.8101 18.6293 52.3584 18.5393 52.9712 18.4992C54.4687 18.4108 55.5102 19.6559 56.1815 20.8736C56.5204 21.4844 56.7741 22.0883 56.9445 22.5425C57.1168 22.9935 57.2077 23.2916 57.2077 23.2916C57.2077 23.2916 56.9575 23.3208 56.557 23.3607C56.1573 23.4137 55.592 23.4304 54.9746 23.4637C53.7316 23.4787 52.2222 23.4333 51.302 22.6393Z" fill="url(#paint1_linear_16_28)"/>
<path d="M49.5167 25.3274C48.7894 24.8313 48.1581 24.1025 47.3042 23.8256C46.8361 23.6739 46.3033 23.6416 45.7453 23.6456C45.195 23.6582 44.6241 23.7141 44.0693 23.7199C44.9297 24.1912 45.8579 24.1045 46.8202 24.3847C47.7014 24.6437 48.5711 25.2093 49.5217 25.3261L49.5167 25.3274ZM46.3244 27.0508C45.1956 26.3609 44.4395 25.5178 43.9835 24.8309C43.5274 24.144 43.3677 23.6198 43.3677 23.6198C43.3902 23.8234 43.746 23.6773 44.4149 23.3857C44.7493 23.24 45.1604 23.0495 45.658 22.8709C46.1543 22.6873 46.719 22.4881 47.3727 22.3403C47.7666 22.2458 48.1438 22.2391 48.5052 22.3037C48.8711 22.3752 49.22 22.5131 49.5477 22.7023C50.2017 23.0757 50.7771 23.6366 51.2564 24.2098C52.2144 25.3644 52.8206 26.57 52.8206 26.57C52.8206 26.57 52.5565 26.6674 52.1165 26.7903C51.6797 26.9151 51.0851 27.0928 50.409 27.2277C49.0743 27.5117 47.441 27.7251 46.3231 27.0457L46.3244 27.0508Z" fill="url(#paint2_linear_16_28)"/>
<path d="M44.5077 30.6017C43.6474 30.2109 42.8455 29.5573 41.8976 29.4209C41.3755 29.3482 40.8059 29.409 40.2188 29.5148C39.6363 29.6274 39.0458 29.7906 38.4637 29.895C39.4567 30.2396 40.4184 29.9773 41.4869 30.1029C42.4658 30.2149 43.4844 30.6547 44.5108 30.6035L44.5077 30.6017ZM41.4413 33.0034C40.1251 32.4764 39.176 31.7252 38.5726 31.0803C37.9674 30.4387 37.7025 29.913 37.7025 29.913C37.7623 30.1254 38.1125 29.9082 38.7682 29.4778C39.092 29.2624 39.4948 28.9909 39.9868 28.7116C40.4776 28.4274 41.039 28.1162 41.6987 27.8406C42.0956 27.6674 42.4917 27.5911 42.888 27.5954C43.2874 27.6015 43.6807 27.6845 44.0641 27.8212C44.8247 28.0909 45.538 28.5747 46.1504 29.0935C47.3736 30.1343 48.2359 31.2929 48.2359 31.2929C48.2359 31.2929 47.9716 31.4495 47.5276 31.6676C47.0867 31.8874 46.4866 32.1848 45.7928 32.4534C44.4325 33.0022 42.7465 33.5198 41.4426 33.0084L41.4413 33.0034Z" fill="url(#paint3_linear_16_28)"/>
<path d="M40.1646 37.0441C39.1926 36.7879 38.2295 36.2445 37.2109 36.2748C36.6488 36.2934 36.0647 36.4602 35.4676 36.6788C34.8737 36.8992 34.291 37.1812 33.6939 37.3998C34.8005 37.577 35.7601 37.1272 36.9041 37.0634C37.9492 37.0018 39.0974 37.2835 40.1696 37.0427L40.1646 37.0441ZM37.3976 40.11C35.9171 39.8016 34.7803 39.1918 34.0258 38.6249C33.2678 38.0644 32.893 37.56 32.893 37.56C32.9956 37.7717 33.3256 37.4794 33.929 36.9044C34.2307 36.6169 34.5992 36.2579 35.0694 35.8771C35.53 35.4907 36.0654 35.0629 36.707 34.6497C37.4678 34.1401 38.3367 34.0531 39.1865 34.2049C40.035 34.3517 40.8662 34.7341 41.6088 35.1671C43.0854 36.0408 44.1968 37.106 44.1968 37.106C44.1968 37.106 43.9473 37.3177 43.5212 37.6223C43.095 37.9269 42.5286 38.3496 41.8466 38.7521C40.523 39.5679 38.8573 40.4105 37.3926 40.1113L37.3976 40.11Z" fill="url(#paint4_linear_16_28)"/>
<path d="M36.8255 44.532C35.7627 44.4478 34.6501 44.068 33.592 44.2916C33.0103 44.4174 32.4321 44.7062 31.8523 45.0492C31.2789 45.3958 30.7249 45.8045 30.1432 46.1506C31.3381 46.1162 32.2425 45.4608 33.4247 45.1692C34.5066 44.9043 35.7543 44.9767 36.8274 44.5288L36.8255 44.532ZM34.5522 48.2344C32.9499 48.2031 31.6364 47.7963 30.7376 47.3621C29.8369 46.931 29.3422 46.4801 29.3422 46.4801C29.4899 46.6798 29.7769 46.3076 30.2934 45.5893C30.5517 45.2301 30.8645 44.7838 31.2804 44.2912C31.6881 43.7981 32.1585 43.2479 32.7522 42.697C33.1079 42.3602 33.4937 42.1255 33.9188 41.977C34.347 41.8304 34.795 41.7671 35.2542 41.7653C36.1693 41.76 37.1107 42.0028 37.964 42.3176C38.8173 42.6323 39.5838 43.024 40.1383 43.3272C40.6929 43.6305 41.0382 43.8552 41.0382 43.8552C41.0382 43.8552 40.8186 44.1181 40.4349 44.5108C40.0481 44.9016 39.5454 45.4416 38.9143 45.9836C37.7013 47.0707 36.1336 48.258 34.5503 48.2376L34.5522 48.2344Z" fill="url(#paint5_linear_16_28)"/>
<path d="M34.9155 52.6967C33.8032 52.8085 32.5539 52.6802 31.5478 53.137C30.9897 53.3909 30.4825 53.8139 29.9842 54.3097C29.5318 54.8067 29.0928 55.3834 28.6248 55.9222C29.2136 55.7031 29.6946 55.3624 30.1582 55.0074C30.6219 54.6525 31.057 54.281 31.6251 53.9949C32.1345 53.7299 32.7209 53.5517 33.2901 53.3593C33.5738 53.2648 33.8574 53.1702 34.1239 53.0614C34.3966 52.9563 34.6704 52.8348 34.9123 52.6949L34.9155 52.6967ZM33.771 56.369C32.1621 56.8633 30.7123 56.9792 29.6619 56.881C28.6091 56.7942 27.9543 56.5178 27.9543 56.5178C28.1842 56.6632 28.288 56.1895 28.5989 55.3058C28.755 54.8665 28.8909 54.3223 29.1916 53.7208C29.474 53.1214 29.7785 52.4544 30.2757 51.7842C30.5615 51.3774 30.902 51.0742 31.3037 50.8486C31.7177 50.6091 32.1729 50.4525 32.6474 50.358C33.5965 50.169 34.6243 50.2329 35.5725 50.3907C36.5257 50.5471 37.3993 50.7973 38.0371 51.0004C38.6749 51.2034 39.0783 51.3643 39.0783 51.3643C39.0783 51.3643 38.9068 51.6761 38.5888 52.1533C38.4129 52.4287 38.2802 52.5851 38.0876 52.8085C37.9068 53.026 37.6641 53.2628 37.4367 53.517C37.0084 54.0237 36.4205 54.5864 35.8478 55.1156C35.5475 55.3785 35.2136 55.6262 34.8616 55.8465C34.5278 56.0647 34.1632 56.2481 33.7646 56.3653L33.771 56.369Z" fill="url(#paint6_linear_16_28)"/>
<path d="M35.868 60.0914C34.8627 60.7011 33.6372 61.1118 32.8367 62.0135C32.3825 62.5137 32.1163 63.1436 31.8545 63.8396C31.5877 64.5368 31.4186 65.2779 31.1954 65.9877C31.6795 65.5386 32.0003 65.0123 32.2926 64.4694C32.5998 63.9225 32.8999 63.3588 33.2945 62.8369C34.0141 61.8843 35.2297 61.0867 35.868 60.0914ZM36.4071 64.4476C35.0426 65.5913 33.6532 66.2419 32.5771 66.5482C32.0413 66.7048 31.5859 66.7807 31.2629 66.8187C30.9466 66.8521 30.7626 66.8475 30.7626 66.8475C31.0357 66.9035 30.9994 66.3786 30.9043 65.4045C30.8174 64.431 30.7351 62.9645 31.0081 61.25C31.2115 60.2069 31.838 59.4377 32.6782 58.8936C33.5334 58.3454 34.565 58.0133 35.5575 57.7858C36.5481 57.5615 37.4996 57.4416 38.2018 57.3642C38.904 57.2867 39.3533 57.2581 39.3533 57.2581C39.3533 57.2581 39.0399 58.4622 38.6826 59.823C38.6235 60.0135 38.5659 60.2089 38.505 60.4025C38.4569 60.6034 38.3987 60.807 38.3355 61.0119C38.2155 61.4255 38.039 61.8488 37.8812 62.2618C37.5555 63.0903 37.0806 63.8835 36.4021 64.4489L36.4071 64.4476Z" fill="url(#paint7_linear_16_28)"/>
<path d="M40.0411 67.8884C39.239 68.8442 38.1355 69.6387 37.6199 70.8108C37.4807 71.1328 37.3792 71.4851 37.3031 71.852C37.2352 72.2194 37.1977 72.6002 37.1693 72.9946C37.1144 73.7804 37.1131 74.6056 37.0682 75.3887C37.8228 74.236 37.8471 72.8861 38.3431 71.5714C38.8014 70.3663 39.7665 69.1869 40.0361 67.8897L40.0411 67.8884ZM42.0715 72.5931C40.9474 74.1212 39.6643 75.0874 38.6273 75.6492C37.5984 76.2115 36.8404 76.3711 36.8404 76.3711C37.1337 76.3625 36.969 75.8397 36.6225 74.8602C36.4545 74.3651 36.2559 73.7464 36.0451 73.0317C35.8497 72.3047 35.6524 71.4708 35.5152 70.5402C35.3638 69.4066 35.7097 68.4034 36.3598 67.5419C36.9966 66.6813 37.8848 65.9658 38.7816 65.3823C39.6784 64.7988 40.5775 64.3437 41.2496 64.0244C41.925 63.707 42.3698 63.5317 42.3698 63.5317C42.3698 63.5317 42.4504 63.8917 42.5287 64.4833C42.5818 64.7808 42.6479 65.1366 42.6964 65.5374C42.7189 65.741 42.7459 65.9514 42.7724 66.17C42.8071 66.3891 42.8363 66.6177 42.8599 66.8559C42.947 67.7999 43.0391 68.8526 42.9428 69.8644C42.8697 70.8726 42.6309 71.8445 42.0728 72.5981L42.0715 72.5931Z" fill="url(#paint8_linear_16_28)"/>
<path d="M46.785 75.7804C46.1261 76.929 45.117 77.9348 44.7849 79.2594C44.4173 80.7117 44.8044 82.5024 44.8838 84.1578C45.5432 82.8612 45.3678 81.4384 45.6804 79.9713C45.9643 78.6273 46.764 77.2422 46.78 75.7818L46.785 75.7804ZM49.8181 80.6955C48.8362 82.4328 47.5793 83.5666 46.5591 84.261C45.5389 84.9553 44.7604 85.209 44.7604 85.209C45.0671 85.17 44.8368 84.6432 44.356 83.6539C43.8769 82.6616 43.1515 81.1923 42.5265 79.277C41.7665 76.9492 43.2333 74.776 44.8208 73.202C46.4201 71.6221 48.1536 70.5814 48.1536 70.5814C48.1536 70.5814 48.3515 70.9879 48.6177 71.6584C48.7508 71.9936 48.9228 72.3936 49.0837 72.8423C49.2446 73.291 49.4176 73.7848 49.5855 74.3095C50.2312 76.4019 50.7839 78.9786 49.8131 80.6969L49.8181 80.6955Z" fill="url(#paint9_linear_16_28)"/>
<path d="M54.9034 83.6062C54.2919 84.8711 53.2729 85.9601 52.9956 87.3883C52.6871 88.9511 53.1572 90.8701 53.186 92.6276C53.5548 91.9595 53.6928 91.2428 53.7708 90.4831C53.8479 89.7398 53.8645 88.9616 54.0024 88.1644C54.2575 86.7234 55.0121 85.2106 54.9034 83.6062ZM58.6029 89.3508C57.5269 91.1777 56.0845 92.2213 54.962 92.8651C53.8349 93.502 53.0074 93.7231 53.0074 93.7231C53.6653 93.6709 52.1711 91.4613 50.5872 87.4379C49.6413 84.9985 50.9386 82.6047 52.4636 80.8082C53.9886 79.0118 55.7427 77.8178 55.7427 77.8178C55.7427 77.8178 56.0233 78.2721 56.4213 79.0228C56.6257 79.4034 56.8572 79.8548 57.099 80.3544C57.3435 80.864 57.6041 81.4338 57.8437 82.0254C58.8226 84.4076 59.6558 87.4978 58.5965 89.3471L58.6029 89.3508Z" fill="url(#paint10_linear_16_28)"/>
<path d="M46.5202 17.8878C46.501 18.8467 46.2244 19.7078 46.5218 20.5741C46.6148 20.0603 46.7871 19.5414 46.9344 19.0292C47.0817 18.5169 47.1948 17.9977 47.2093 17.5317C47.2263 16.6648 46.7696 15.9055 46.5827 15.0903C46.2739 16.0514 46.5349 17.0026 46.5233 17.8896L46.5202 17.8878ZM47.1368 11.4711C47.1368 11.4711 47.9995 12.4012 48.5823 13.6695C49.1619 14.936 49.5015 16.5298 48.6229 17.8312C47.8986 18.9166 47.2947 19.7497 46.8931 20.3056C46.5069 20.879 46.3245 21.1803 46.5074 21.2308C46.5074 21.2308 46.05 21.0091 45.4694 20.5087C44.8905 20.0051 44.1816 19.2272 43.7392 18.0612C43.5232 17.4875 43.5901 16.7764 43.8366 16.0335C44.0986 15.308 44.512 14.5259 45.006 13.8539C45.2482 13.5151 45.5027 13.1919 45.7421 12.9022C45.9877 12.6163 46.2283 12.3613 46.435 12.1502C46.847 11.7231 47.1354 11.4661 47.1354 11.4661L47.1368 11.4711Z" fill="url(#paint11_linear_16_28)"/>
<path d="M40.5935 22.6281C40.729 23.6424 40.5982 24.6257 41.044 25.4846C41.0671 24.9303 41.1577 24.3473 41.22 23.7691C41.2932 23.2015 41.3377 22.6469 41.2627 22.1376C41.1286 21.2089 40.5106 20.4793 40.1767 19.647C40.0132 20.7089 40.4727 21.6985 40.5935 22.6281ZM40.1215 15.7311C40.1215 15.7311 41.1955 16.5672 42.0412 17.8136C42.8932 19.0637 43.5165 20.6731 42.8179 22.2138C42.24 23.4939 41.7247 24.4672 41.4002 25.1396C41.071 25.8052 40.9317 26.1567 41.1375 26.1824C41.1375 26.1824 40.617 26.0259 39.9172 25.5922C39.2192 25.1553 38.3401 24.4445 37.6727 23.2713C37.0076 22.1164 37.5127 20.2055 38.3022 18.6029C38.6888 17.8011 39.1525 17.0861 39.5011 16.5631C39.8638 16.0525 40.1228 15.7361 40.1228 15.7361L40.1215 15.7311Z" fill="url(#paint12_linear_16_28)"/>
<path d="M34.732 29.151C35.045 30.1958 35.087 31.2619 35.7124 32.0889C35.6404 31.501 35.621 30.8586 35.5964 30.2473C35.5719 29.6359 35.5236 29.0362 35.3507 28.5128C35.0392 27.5536 34.2751 26.9006 33.7681 26.0742C33.7723 27.2203 34.4387 28.1896 34.7302 29.1541L34.732 29.151ZM33.0163 21.9468C33.0163 21.9468 34.2963 22.6392 35.4115 23.8082C35.9709 24.3896 36.4888 25.0868 36.807 25.8508C37.1221 26.6129 37.2405 27.4437 37.0103 28.3274C36.244 31.2269 35.5082 32.8393 35.9342 32.8142C35.9342 32.8142 35.3546 32.738 34.5419 32.4043C33.7279 32.0656 32.6707 31.4722 31.7567 30.3515C30.8595 29.2532 31.0561 27.1346 31.6029 25.2986C31.8887 24.392 32.2241 23.5394 32.5165 22.9374C32.8058 22.3335 33.0208 21.9536 33.0208 21.9536L33.0163 21.9468Z" fill="url(#paint13_linear_16_28)"/>
<path d="M29.7255 37.0951C30.2489 38.1428 30.4761 39.2481 31.2949 40.0047C30.8988 38.7806 30.8076 37.3514 30.2546 36.3036C29.7662 35.3566 28.8319 34.8002 28.1557 34.0244C28.3715 35.2376 29.2318 36.1281 29.7223 37.0933L29.7255 37.0951ZM26.6313 29.8024C26.6313 29.8024 28.0988 30.3024 29.4805 31.333C30.1723 31.8468 30.8417 32.4874 31.3139 33.2344C31.7875 33.9865 32.0466 34.8307 31.9673 35.8057C31.6805 38.9989 31.218 40.8285 31.6602 40.7238C31.6602 40.7238 31.0333 40.7516 30.114 40.5512C29.1997 40.3495 27.9697 39.9231 26.8089 38.914C26.2377 38.4191 25.9042 37.6082 25.7421 36.6547C25.5812 35.7063 25.6159 34.625 25.7328 33.5997C25.8719 32.5873 26.0692 31.6211 26.2763 30.9317C26.4739 30.2367 26.63 29.7974 26.63 29.7974L26.6313 29.8024Z" fill="url(#paint14_linear_16_28)"/>
<path d="M25.9919 46.4053C26.3753 46.902 26.673 47.4296 27.0001 47.9065C27.3398 48.3907 27.7058 48.8222 28.2102 49.1388C27.5493 47.9398 27.1796 46.4641 26.3944 45.4729C25.7041 44.5746 24.6189 44.1767 23.7629 43.4919C23.996 44.1093 24.3776 44.6092 24.7831 45.0678C25.1999 45.5287 25.6438 45.9502 25.995 46.4071L25.9919 46.4053ZM21.3623 39.3401C21.3623 39.3401 21.7702 39.3977 22.3841 39.5615C22.9979 39.7253 23.8145 39.9934 24.631 40.4013C25.4443 40.8073 26.2726 41.3491 26.909 42.0469C27.2256 42.3949 27.4988 42.7813 27.6989 43.2061C27.8959 43.629 28.0294 44.0958 28.0857 44.6154C28.4021 48.0128 28.2979 50.0154 28.7373 49.8201C28.7373 49.8201 28.0913 49.9766 27.0875 49.9519C26.0868 49.9291 24.7216 49.7296 23.3159 48.9095C22.6192 48.5073 22.1097 47.7218 21.7463 46.7496C21.407 45.787 21.2073 44.634 21.1478 43.5323C21.0895 42.4355 21.1227 41.3788 21.2081 40.6064C21.2821 39.8317 21.361 39.3351 21.361 39.3351L21.3623 39.3401Z" fill="url(#paint15_linear_16_28)"/>
<path d="M24.5695 57.4946C25.6702 58.2698 26.5999 59.209 27.8303 59.4069C27.5542 59.1797 27.2815 58.9248 27.0078 58.6567L26.5994 58.2473C26.4729 58.1064 26.3445 57.9688 26.218 57.8279C25.7081 57.271 25.1909 56.7267 24.6167 56.3401C23.6228 55.6223 22.4037 55.5665 21.3178 55.0962C21.7576 55.7229 22.2917 56.1498 22.8697 56.5005C23.456 56.8517 24.0525 57.141 24.5695 57.4946ZM17.7229 50.9411C17.7229 50.9411 18.1659 50.8791 18.8386 50.8821C19.5146 50.8869 20.4216 50.9616 21.3572 51.1926C21.8259 51.3065 22.3004 51.4619 22.7625 51.6608C23.2327 51.8603 23.6854 52.1048 24.1056 52.3982C24.5258 52.6916 24.9067 53.0386 25.2285 53.4362C25.3895 53.635 25.5362 53.851 25.6624 54.0806C25.8 54.3125 25.9335 54.559 26.0395 54.8235C26.2191 55.2618 26.3806 55.6727 26.5272 56.0581C26.6838 56.4407 26.8569 56.7948 26.9968 57.1255C27.1354 57.4512 27.2654 57.755 27.3855 58.0319C27.5125 58.3042 27.6427 58.5489 27.7517 58.7643C28.1907 59.6276 28.4378 60.0372 28.6189 59.841C28.6189 59.841 28.0739 60.2633 27.103 60.6812C26.1326 61.0909 24.7413 61.5244 22.9958 61.3002C22.1185 61.1961 21.3074 60.5584 20.5371 59.6223C20.3503 59.3874 20.1495 59.1402 19.9847 58.8672C19.82 58.5941 19.6594 58.3066 19.5075 58.0113C19.3524 57.7142 19.2078 57.4063 19.07 57.0938C18.9291 56.7795 18.7982 56.4625 18.6975 56.1375C18.4858 55.4901 18.3088 54.8415 18.1609 54.2308C18.0047 53.6197 17.9513 53.0509 17.8785 52.5599C17.817 52.0712 17.7739 51.6609 17.7495 51.38C17.7237 51.094 17.7184 50.9342 17.7184 50.9342L17.7229 50.9411Z" fill="url(#paint16_linear_16_28)"/>
<path d="M27.7043 68.9193C29.1039 69.2063 30.2899 69.8191 31.6058 69.575C30.8784 69.3287 30.1702 68.9537 29.455 68.6128C29.0999 68.4416 28.7343 68.2814 28.3842 68.1385C28.039 67.9943 27.6924 67.8746 27.3465 67.7978C26.0881 67.516 24.8708 67.9568 23.6263 67.9668C24.9752 68.7456 26.4204 68.6524 27.6993 68.9206L27.7043 68.9193ZM18.5146 65.6382C18.5146 65.6382 18.9122 65.3976 19.5624 65.1164C20.2125 64.8353 21.1165 64.5186 22.1243 64.338C23.1289 64.1556 24.2359 64.1043 25.275 64.3103C26.3004 64.5254 27.3245 64.9557 28.1325 65.8119C28.8249 66.5081 29.4352 67.1189 29.9529 67.6549C30.4779 68.1783 30.9285 68.6248 31.2938 68.984C32.0459 69.6723 32.4396 69.997 32.5535 69.7409C32.5535 69.7409 32.1403 70.3537 31.2999 71.0968C30.4549 71.833 29.1966 72.7119 27.4088 73.0901C26.5276 73.2718 25.4956 73.0021 24.4556 72.4228C23.428 71.8295 22.3678 70.9548 21.4811 69.9558C21.2539 69.7102 21.0366 69.462 20.8258 69.2174C20.6186 68.9665 20.4332 68.707 20.2506 68.4576C19.8904 67.9573 19.5697 67.4842 19.3044 67.0768C18.802 66.2277 18.5159 65.6432 18.5159 65.6432L18.5146 65.6382Z" fill="url(#paint17_linear_16_28)"/>
<path d="M34.0461 79.0654C35.5198 79.0183 36.8663 79.3679 38.1682 78.8616C36.5944 78.6264 34.9129 77.9902 33.4506 78.0397C32.1099 78.0916 30.9888 78.8505 29.7476 79.1928C31.2355 79.5987 32.7037 79.0909 34.0461 79.0654ZM24.1282 78.5957C24.1282 78.5957 24.4616 78.246 25.0392 77.7747C25.6167 77.3034 26.4352 76.7086 27.3859 76.2155C28.3384 75.7192 29.4254 75.3133 30.5267 75.191C31.6281 75.0687 32.7357 75.2296 33.7883 75.8458C35.5157 76.8727 36.8347 77.7401 37.7321 78.3091C38.6263 78.8762 39.1132 79.1276 39.1762 78.8421C39.1762 78.8421 38.8706 79.5552 38.1397 80.4758C37.4056 81.3947 36.2493 82.523 34.4914 83.2828C32.7586 84.0359 30.1514 83.0855 27.9826 81.7063C27.4395 81.3758 26.9308 80.9932 26.4662 80.6444C26.0016 80.2957 25.5825 79.9563 25.2393 79.6396C24.547 79.0239 24.1232 78.5971 24.1232 78.5971L24.1282 78.5957Z" fill="url(#paint18_linear_16_28)"/>
<path d="M42.0074 88.2067C43.5132 87.979 44.9412 88.202 46.2559 87.5633C44.5974 87.4529 42.7973 86.9854 41.2969 87.2331C39.9291 87.4642 38.8565 88.4036 37.6282 88.944C39.1781 89.1103 40.6233 88.4072 42.0074 88.2067ZM31.9134 89.3719C31.9134 89.3719 33.1135 87.7267 34.9178 86.3796C36.724 85.0292 39.1012 83.9535 41.4104 84.9352C45.2322 86.5445 47.2201 88.0607 47.3117 87.4613C47.3117 87.4613 46.2477 90.5532 42.7291 92.4523C40.9887 93.3875 38.3421 92.7404 36.0594 91.7274C33.7826 90.7264 31.9166 89.3737 31.9166 89.3737L31.9134 89.3719Z" fill="url(#paint19_linear_16_28)"/>
<path d="M49.8286 96.5766C50.2087 96.5207 50.5836 96.4958 50.9544 96.4854C51.3184 96.4795 51.6792 96.4718 52.0349 96.4654C52.7615 96.4486 53.4499 96.4098 54.1791 96.1828C52.5147 95.8402 50.7551 95.3538 49.2123 95.6236C47.8266 95.8782 46.6924 96.8583 45.4425 97.4582C46.2103 97.4949 46.9429 97.3206 47.6789 97.1187C48.418 96.9185 49.1426 96.6846 49.8317 96.5784L49.8286 96.5766ZM39.8014 98.3607C39.8014 98.3607 41.0233 96.6264 42.8292 95.115C44.6364 93.6085 47.0622 92.3237 49.4303 93.2843C51.3822 94.0767 52.8183 94.9396 53.7583 95.5671C54.2267 95.8799 54.5737 96.1311 54.831 96.2584C55.0747 96.3949 55.2217 96.412 55.2788 96.2544C55.2788 96.2544 54.846 97.0041 53.8536 97.8119C53.3587 98.2208 52.7312 98.6464 51.9813 99.0563C51.2346 99.468 50.3635 99.8673 49.4341 100.28C49.206 100.381 48.9752 100.472 48.7548 100.552C48.5327 100.636 48.3224 100.714 48.0768 100.75C47.8388 100.794 47.6064 100.83 47.3763 100.853C47.2638 100.865 47.1512 100.876 47.0387 100.887C46.917 100.885 46.7923 100.881 46.6656 100.879C46.4179 100.868 46.1738 100.85 45.9384 100.824C45.6967 100.794 45.4222 100.733 45.1738 100.679C44.6863 100.575 44.139 100.399 43.6478 100.221C43.1534 100.042 42.6368 99.8198 42.1962 99.6205C41.7365 99.4101 41.3132 99.1954 40.9655 99.0116C40.6209 98.8296 40.3137 98.6564 40.1132 98.5407C39.9096 98.4232 39.8001 98.3557 39.8001 98.3557L39.8014 98.3607Z" fill="url(#paint20_linear_16_28)"/>
<defs>
<linearGradient id="paint0_linear_16_28" x1="52.2394" y1="96.486" x2="56.654" y2="11.4948" gradientUnits="userSpaceOnUse">
<stop stop-color="#CFA841"/>
<stop offset="0.18" stop-color="#EACD66"/>
<stop offset="0.21" stop-color="#EBD47A"/>
<stop offset="0.29" stop-color="#EFE9B6"/>
<stop offset="0.44" stop-color="#CDA53E"/>
<stop offset="0.47" stop-color="#D6B658"/>
<stop offset="0.53" stop-color="#E2CB78"/>
<stop offset="0.57" stop-color="#EAD88C"/>
<stop offset="0.6" stop-color="#EDDD94"/>
<stop offset="0.65" stop-color="#E5CC73"/>
<stop offset="0.69" stop-color="#E0C15E"/>
<stop offset="0.72" stop-color="#DFBD56"/>
<stop offset="0.88" stop-color="#F4F6CE"/>
<stop offset="1" stop-color="#D7B34C"/>
</linearGradient>
<linearGradient id="paint1_linear_16_28" x1="49.3476" y1="96.337" x2="53.7622" y2="11.3458" gradientUnits="userSpaceOnUse">
<stop stop-color="#CFA841"/>
<stop offset="0.18" stop-color="#EACD66"/>
<stop offset="0.21" stop-color="#EBD47A"/>
<stop offset="0.29" stop-color="#EFE9B6"/>
<stop offset="0.44" stop-color="#CDA53E"/>
<stop offset="0.47" stop-color="#D6B658"/>
<stop offset="0.53" stop-color="#E2CB78"/>
<stop offset="0.57" stop-color="#EAD88C"/>
<stop offset="0.6" stop-color="#EDDD94"/>
<stop offset="0.65" stop-color="#E5CC73"/>
<stop offset="0.69" stop-color="#E0C15E"/>
<stop offset="0.72" stop-color="#DFBD56"/>
<stop offset="0.88" stop-color="#F4F6CE"/>
<stop offset="1" stop-color="#D7B34C"/>
</linearGradient>
<linearGradient id="paint2_linear_16_28" x1="44.4926" y1="96.0838" x2="48.9054" y2="11.0957" gradientUnits="userSpaceOnUse">
<stop stop-color="#CFA841"/>
<stop offset="0.18" stop-color="#EACD66"/>
<stop offset="0.21" stop-color="#EBD47A"/>
<stop offset="0.29" stop-color="#EFE9B6"/>
<stop offset="0.44" stop-color="#CDA53E"/>
<stop offset="0.47" stop-color="#D6B658"/>
<stop offset="0.53" stop-color="#E2CB78"/>
<stop offset="0.57" stop-color="#EAD88C"/>
<stop offset="0.6" stop-color="#EDDD94"/>
<stop offset="0.65" stop-color="#E5CC73"/>
<stop offset="0.69" stop-color="#E0C15E"/>
<stop offset="0.72" stop-color="#DFBD56"/>
<stop offset="0.88" stop-color="#F4F6CE"/>
<stop offset="1" stop-color="#D7B34C"/>
</linearGradient>
<linearGradient id="paint3_linear_16_28" x1="39.6572" y1="95.8334" x2="44.0718" y2="10.8422" gradientUnits="userSpaceOnUse">
<stop stop-color="#CFA841"/>
<stop offset="0.18" stop-color="#EACD66"/>
<stop offset="0.21" stop-color="#EBD47A"/>
<stop offset="0.29" stop-color="#EFE9B6"/>
<stop offset="0.44" stop-color="#CDA53E"/>
<stop offset="0.47" stop-color="#D6B658"/>
<stop offset="0.53" stop-color="#E2CB78"/>
<stop offset="0.57" stop-color="#EAD88C"/>
<stop offset="0.6" stop-color="#EDDD94"/>
<stop offset="0.65" stop-color="#E5CC73"/>
<stop offset="0.69" stop-color="#E0C15E"/>
<stop offset="0.72" stop-color="#DFBD56"/>
<stop offset="0.88" stop-color="#F4F6CE"/>
<stop offset="1" stop-color="#D7B34C"/>
</linearGradient>
<linearGradient id="paint4_linear_16_28" x1="35.5877" y1="95.6229" x2="40.0023" y2="10.6317" gradientUnits="userSpaceOnUse">
<stop stop-color="#CFA841"/>
<stop offset="0.18" stop-color="#EACD66"/>
<stop offset="0.21" stop-color="#EBD47A"/>
<stop offset="0.29" stop-color="#EFE9B6"/>
<stop offset="0.44" stop-color="#CDA53E"/>
<stop offset="0.47" stop-color="#D6B658"/>
<stop offset="0.53" stop-color="#E2CB78"/>
<stop offset="0.57" stop-color="#EAD88C"/>
<stop offset="0.6" stop-color="#EDDD94"/>
<stop offset="0.65" stop-color="#E5CC73"/>
<stop offset="0.69" stop-color="#E0C15E"/>
<stop offset="0.72" stop-color="#DFBD56"/>
<stop offset="0.88" stop-color="#F4F6CE"/>
<stop offset="1" stop-color="#D7B34C"/>
</linearGradient>
<linearGradient id="paint5_linear_16_28" x1="32.6403" y1="95.4673" x2="37.0532" y2="10.4792" gradientUnits="userSpaceOnUse">
<stop stop-color="#CFA841"/>
<stop offset="0.18" stop-color="#EACD66"/>
<stop offset="0.21" stop-color="#EBD47A"/>
<stop offset="0.29" stop-color="#EFE9B6"/>
<stop offset="0.44" stop-color="#CDA53E"/>
<stop offset="0.47" stop-color="#D6B658"/>
<stop offset="0.53" stop-color="#E2CB78"/>
<stop offset="0.57" stop-color="#EAD88C"/>
<stop offset="0.6" stop-color="#EDDD94"/>
<stop offset="0.65" stop-color="#E5CC73"/>
<stop offset="0.69" stop-color="#E0C15E"/>
<stop offset="0.72" stop-color="#DFBD56"/>
<stop offset="0.88" stop-color="#F4F6CE"/>
<stop offset="1" stop-color="#D7B34C"/>
</linearGradient>
<linearGradient id="paint6_linear_16_28" x1="31.4135" y1="95.4028" x2="35.8295" y2="10.4165" gradientUnits="userSpaceOnUse">
<stop stop-color="#CFA841"/>
<stop offset="0.18" stop-color="#EACD66"/>
<stop offset="0.21" stop-color="#EBD47A"/>
<stop offset="0.29" stop-color="#EFE9B6"/>
<stop offset="0.44" stop-color="#CDA53E"/>
<stop offset="0.47" stop-color="#D6B658"/>
<stop offset="0.53" stop-color="#E2CB78"/>
<stop offset="0.57" stop-color="#EAD88C"/>
<stop offset="0.6" stop-color="#EDDD94"/>
<stop offset="0.65" stop-color="#E5CC73"/>
<stop offset="0.69" stop-color="#E0C15E"/>
<stop offset="0.72" stop-color="#DFBD56"/>
<stop offset="0.88" stop-color="#F4F6CE"/>
<stop offset="1" stop-color="#D7B34C"/>
</linearGradient>
<linearGradient id="paint7_linear_16_28" x1="33.2998" y1="95.5007" x2="37.7126" y2="10.5126" gradientUnits="userSpaceOnUse">
<stop stop-color="#CFA841"/>
<stop offset="0.18" stop-color="#EACD66"/>
<stop offset="0.21" stop-color="#EBD47A"/>
<stop offset="0.29" stop-color="#EFE9B6"/>
<stop offset="0.44" stop-color="#CDA53E"/>
<stop offset="0.47" stop-color="#D6B658"/>
<stop offset="0.53" stop-color="#E2CB78"/>
<stop offset="0.57" stop-color="#EAD88C"/>
<stop offset="0.6" stop-color="#EDDD94"/>
<stop offset="0.65" stop-color="#E5CC73"/>
<stop offset="0.69" stop-color="#E0C15E"/>
<stop offset="0.72" stop-color="#DFBD56"/>
<stop offset="0.88" stop-color="#F4F6CE"/>
<stop offset="1" stop-color="#D7B34C"/>
</linearGradient>
<linearGradient id="paint8_linear_16_28" x1="37.902" y1="95.7435" x2="42.3167" y2="10.7522" gradientUnits="userSpaceOnUse">
<stop stop-color="#CFA841"/>
<stop offset="0.18" stop-color="#EACD66"/>
<stop offset="0.21" stop-color="#EBD47A"/>
<stop offset="0.29" stop-color="#EFE9B6"/>
<stop offset="0.44" stop-color="#CDA53E"/>
<stop offset="0.47" stop-color="#D6B658"/>
<stop offset="0.53" stop-color="#E2CB78"/>
<stop offset="0.57" stop-color="#EAD88C"/>
<stop offset="0.6" stop-color="#EDDD94"/>
<stop offset="0.65" stop-color="#E5CC73"/>
<stop offset="0.69" stop-color="#E0C15E"/>
<stop offset="0.72" stop-color="#DFBD56"/>
<stop offset="0.88" stop-color="#F4F6CE"/>
<stop offset="1" stop-color="#D7B34C"/>
</linearGradient>
<linearGradient id="paint9_linear_16_28" x1="45.4225" y1="96.1336" x2="49.8372" y2="11.1424" gradientUnits="userSpaceOnUse">
<stop stop-color="#CFA841"/>
<stop offset="0.18" stop-color="#EACD66"/>
<stop offset="0.21" stop-color="#EBD47A"/>
<stop offset="0.29" stop-color="#EFE9B6"/>
<stop offset="0.44" stop-color="#CDA53E"/>
<stop offset="0.47" stop-color="#D6B658"/>
<stop offset="0.53" stop-color="#E2CB78"/>
<stop offset="0.57" stop-color="#EAD88C"/>
<stop offset="0.6" stop-color="#EDDD94"/>
<stop offset="0.65" stop-color="#E5CC73"/>
<stop offset="0.69" stop-color="#E0C15E"/>
<stop offset="0.72" stop-color="#DFBD56"/>
<stop offset="0.88" stop-color="#F4F6CE"/>
<stop offset="1" stop-color="#D7B34C"/>
</linearGradient>
<linearGradient id="paint10_linear_16_28" x1="54.1698" y1="96.5883" x2="58.5844" y2="11.597" gradientUnits="userSpaceOnUse">
<stop stop-color="#CFA841"/>
<stop offset="0.18" stop-color="#EACD66"/>
<stop offset="0.21" stop-color="#EBD47A"/>
<stop offset="0.29" stop-color="#EFE9B6"/>
<stop offset="0.44" stop-color="#CDA53E"/>
<stop offset="0.47" stop-color="#D6B658"/>
<stop offset="0.53" stop-color="#E2CB78"/>
<stop offset="0.57" stop-color="#EAD88C"/>
<stop offset="0.6" stop-color="#EDDD94"/>
<stop offset="0.65" stop-color="#E5CC73"/>
<stop offset="0.69" stop-color="#E0C15E"/>
<stop offset="0.72" stop-color="#DFBD56"/>
<stop offset="0.88" stop-color="#F4F6CE"/>
<stop offset="1" stop-color="#D7B34C"/>
</linearGradient>
<linearGradient id="paint11_linear_16_28" x1="42.3604" y1="95.971" x2="46.7764" y2="10.9848" gradientUnits="userSpaceOnUse">
<stop stop-color="#CFA841"/>
<stop offset="0.18" stop-color="#EACD66"/>
<stop offset="0.21" stop-color="#EBD47A"/>
<stop offset="0.29" stop-color="#EFE9B6"/>
<stop offset="0.44" stop-color="#CDA53E"/>
<stop offset="0.47" stop-color="#D6B658"/>
<stop offset="0.53" stop-color="#E2CB78"/>
<stop offset="0.57" stop-color="#EAD88C"/>
<stop offset="0.6" stop-color="#EDDD94"/>
<stop offset="0.65" stop-color="#E5CC73"/>
<stop offset="0.69" stop-color="#E0C15E"/>
<stop offset="0.72" stop-color="#DFBD56"/>
<stop offset="0.88" stop-color="#F4F6CE"/>
<stop offset="1" stop-color="#D7B34C"/>
</linearGradient>
<linearGradient id="paint12_linear_16_28" x1="36.4734" y1="95.6684" x2="40.8881" y2="10.6771" gradientUnits="userSpaceOnUse">
<stop stop-color="#CFA841"/>
<stop offset="0.18" stop-color="#EACD66"/>
<stop offset="0.21" stop-color="#EBD47A"/>
<stop offset="0.29" stop-color="#EFE9B6"/>
<stop offset="0.44" stop-color="#CDA53E"/>
<stop offset="0.47" stop-color="#D6B658"/>
<stop offset="0.53" stop-color="#E2CB78"/>
<stop offset="0.57" stop-color="#EAD88C"/>
<stop offset="0.6" stop-color="#EDDD94"/>
<stop offset="0.65" stop-color="#E5CC73"/>
<stop offset="0.69" stop-color="#E0C15E"/>
<stop offset="0.72" stop-color="#DFBD56"/>
<stop offset="0.88" stop-color="#F4F6CE"/>
<stop offset="1" stop-color="#D7B34C"/>
</linearGradient>
<linearGradient id="paint13_linear_16_28" x1="30.6999" y1="95.3677" x2="35.1146" y2="10.3765" gradientUnits="userSpaceOnUse">
<stop stop-color="#CFA841"/>
<stop offset="0.18" stop-color="#EACD66"/>
<stop offset="0.21" stop-color="#EBD47A"/>
<stop offset="0.29" stop-color="#EFE9B6"/>
<stop offset="0.44" stop-color="#CDA53E"/>
<stop offset="0.47" stop-color="#D6B658"/>
<stop offset="0.53" stop-color="#E2CB78"/>
<stop offset="0.57" stop-color="#EAD88C"/>
<stop offset="0.6" stop-color="#EDDD94"/>
<stop offset="0.65" stop-color="#E5CC73"/>
<stop offset="0.69" stop-color="#E0C15E"/>
<stop offset="0.72" stop-color="#DFBD56"/>
<stop offset="0.88" stop-color="#F4F6CE"/>
<stop offset="1" stop-color="#D7B34C"/>
</linearGradient>
<linearGradient id="paint14_linear_16_28" x1="25.7711" y1="95.11" x2="30.1871" y2="10.1238" gradientUnits="userSpaceOnUse">
<stop stop-color="#CFA841"/>
<stop offset="0.18" stop-color="#EACD66"/>
<stop offset="0.21" stop-color="#EBD47A"/>
<stop offset="0.29" stop-color="#EFE9B6"/>
<stop offset="0.44" stop-color="#CDA53E"/>
<stop offset="0.47" stop-color="#D6B658"/>
<stop offset="0.53" stop-color="#E2CB78"/>
<stop offset="0.57" stop-color="#EAD88C"/>
<stop offset="0.6" stop-color="#EDDD94"/>
<stop offset="0.65" stop-color="#E5CC73"/>
<stop offset="0.69" stop-color="#E0C15E"/>
<stop offset="0.72" stop-color="#DFBD56"/>
<stop offset="0.88" stop-color="#F4F6CE"/>
<stop offset="1" stop-color="#D7B34C"/>
</linearGradient>
<linearGradient id="paint15_linear_16_28" x1="22.4381" y1="94.9392" x2="26.8527" y2="9.94797" gradientUnits="userSpaceOnUse">
<stop stop-color="#CFA841"/>
<stop offset="0.18" stop-color="#EACD66"/>
<stop offset="0.21" stop-color="#EBD47A"/>
<stop offset="0.29" stop-color="#EFE9B6"/>
<stop offset="0.44" stop-color="#CDA53E"/>
<stop offset="0.47" stop-color="#D6B658"/>
<stop offset="0.53" stop-color="#E2CB78"/>
<stop offset="0.57" stop-color="#EAD88C"/>
<stop offset="0.6" stop-color="#EDDD94"/>
<stop offset="0.65" stop-color="#E5CC73"/>
<stop offset="0.69" stop-color="#E0C15E"/>
<stop offset="0.72" stop-color="#DFBD56"/>
<stop offset="0.88" stop-color="#F4F6CE"/>
<stop offset="1" stop-color="#D7B34C"/>
</linearGradient>
<linearGradient id="paint16_linear_16_28" x1="21.1702" y1="94.8723" x2="25.583" y2="9.88416" gradientUnits="userSpaceOnUse">
<stop stop-color="#CFA841"/>
<stop offset="0.18" stop-color="#EACD66"/>
<stop offset="0.21" stop-color="#EBD47A"/>
<stop offset="0.29" stop-color="#EFE9B6"/>
<stop offset="0.44" stop-color="#CDA53E"/>
<stop offset="0.47" stop-color="#D6B658"/>
<stop offset="0.53" stop-color="#E2CB78"/>
<stop offset="0.57" stop-color="#EAD88C"/>
<stop offset="0.6" stop-color="#EDDD94"/>
<stop offset="0.65" stop-color="#E5CC73"/>
<stop offset="0.69" stop-color="#E0C15E"/>
<stop offset="0.72" stop-color="#DFBD56"/>
<stop offset="0.88" stop-color="#F4F6CE"/>
<stop offset="1" stop-color="#D7B34C"/>
</linearGradient>
<linearGradient id="paint17_linear_16_28" x1="24.1472" y1="95.028" x2="28.5618" y2="10.0368" gradientUnits="userSpaceOnUse">
<stop stop-color="#CFA841"/>
<stop offset="0.18" stop-color="#EACD66"/>
<stop offset="0.21" stop-color="#EBD47A"/>
<stop offset="0.29" stop-color="#EFE9B6"/>
<stop offset="0.44" stop-color="#CDA53E"/>
<stop offset="0.47" stop-color="#D6B658"/>
<stop offset="0.53" stop-color="#E2CB78"/>
<stop offset="0.57" stop-color="#EAD88C"/>
<stop offset="0.6" stop-color="#EDDD94"/>
<stop offset="0.65" stop-color="#E5CC73"/>
<stop offset="0.69" stop-color="#E0C15E"/>
<stop offset="0.72" stop-color="#DFBD56"/>
<stop offset="0.88" stop-color="#F4F6CE"/>
<stop offset="1" stop-color="#D7B34C"/>
</linearGradient>
<linearGradient id="paint18_linear_16_28" x1="30.8083" y1="95.371" x2="35.2242" y2="10.3848" gradientUnits="userSpaceOnUse">
<stop stop-color="#CFA841"/>
<stop offset="0.18" stop-color="#EACD66"/>
<stop offset="0.21" stop-color="#EBD47A"/>
<stop offset="0.29" stop-color="#EFE9B6"/>
<stop offset="0.44" stop-color="#CDA53E"/>
<stop offset="0.47" stop-color="#D6B658"/>
<stop offset="0.53" stop-color="#E2CB78"/>
<stop offset="0.57" stop-color="#EAD88C"/>
<stop offset="0.6" stop-color="#EDDD94"/>
<stop offset="0.65" stop-color="#E5CC73"/>
<stop offset="0.69" stop-color="#E0C15E"/>
<stop offset="0.72" stop-color="#DFBD56"/>
<stop offset="0.88" stop-color="#F4F6CE"/>
<stop offset="1" stop-color="#D7B34C"/>
</linearGradient>
<linearGradient id="paint19_linear_16_28" x1="39.2373" y1="95.8113" x2="43.6519" y2="10.8201" gradientUnits="userSpaceOnUse">
<stop stop-color="#CFA841"/>
<stop offset="0.18" stop-color="#EACD66"/>
<stop offset="0.21" stop-color="#EBD47A"/>
<stop offset="0.29" stop-color="#EFE9B6"/>
<stop offset="0.44" stop-color="#CDA53E"/>
<stop offset="0.47" stop-color="#D6B658"/>
<stop offset="0.53" stop-color="#E2CB78"/>
<stop offset="0.57" stop-color="#EAD88C"/>
<stop offset="0.6" stop-color="#EDDD94"/>
<stop offset="0.65" stop-color="#E5CC73"/>
<stop offset="0.69" stop-color="#E0C15E"/>
<stop offset="0.72" stop-color="#DFBD56"/>
<stop offset="0.88" stop-color="#F4F6CE"/>
<stop offset="1" stop-color="#D7B34C"/>
</linearGradient>
<linearGradient id="paint20_linear_16_28" x1="47.5975" y1="96.2457" x2="52.0103" y2="11.2576" gradientUnits="userSpaceOnUse">
<stop stop-color="#CFA841"/>
<stop offset="0.18" stop-color="#EACD66"/>
<stop offset="0.21" stop-color="#EBD47A"/>
<stop offset="0.29" stop-color="#EFE9B6"/>
<stop offset="0.44" stop-color="#CDA53E"/>
<stop offset="0.47" stop-color="#D6B658"/>
<stop offset="0.53" stop-color="#E2CB78"/>
<stop offset="0.57" stop-color="#EAD88C"/>
<stop offset="0.6" stop-color="#EDDD94"/>
<stop offset="0.65" stop-color="#E5CC73"/>
<stop offset="0.69" stop-color="#E0C15E"/>
<stop offset="0.72" stop-color="#DFBD56"/>
<stop offset="0.88" stop-color="#F4F6CE"/>
<stop offset="1" stop-color="#D7B34C"/>
</linearGradient>
</defs>
</svg>
