<svg width="147" height="20" viewBox="0 0 147 20" fill="none" xmlns="http://www.w3.org/2000/svg">
<path d="M5.708 19L0.802 2.61H4.96L6.83 10.09C7.314 11.85 7.644 13.522 8.106 15.326H8.216C8.7 13.522 9.03 11.85 9.492 10.09L11.34 2.61H15.344L10.438 19H5.708ZM16.7207 19V6.482H20.6367V19H16.7207ZM18.6787 4.744C17.3587 4.744 16.5007 3.952 16.5007 2.72C16.5007 1.51 17.3587 0.717999 18.6787 0.717999C19.9767 0.717999 20.8567 1.51 20.8567 2.72C20.8567 3.952 19.9767 4.744 18.6787 4.744ZM23.7891 19V6.482H26.9791L27.2651 8.66H27.3311C28.2551 6.988 29.6411 6.174 30.8951 6.174C31.6431 6.174 32.0611 6.284 32.4131 6.438L31.7751 9.804C31.3131 9.694 30.9391 9.606 30.3891 9.606C29.4651 9.606 28.3431 10.2 27.7051 11.85V19H23.7891ZM38.9222 19.308C35.7762 19.308 34.5002 17.306 34.5002 14.358V9.54H32.8062V6.636L34.7422 6.482L35.1822 3.16H38.4162V6.482H41.3642V9.54H38.4162V14.314C38.4162 15.7 39.0762 16.25 40.0002 16.25C40.3962 16.25 40.8362 16.118 41.1442 16.008L41.7602 18.846C41.1002 19.044 40.1982 19.308 38.9222 19.308ZM47.575 19.308C44.825 19.308 43.659 17.35 43.659 14.226V6.482H47.575V13.742C47.575 15.458 48.037 15.964 49.027 15.964C49.907 15.964 50.457 15.612 51.117 14.688V6.482H55.033V19H51.843L51.557 17.284H51.469C50.435 18.516 49.269 19.308 47.575 19.308ZM61.3536 19.308C59.0436 19.308 57.6356 17.592 57.6356 15.502C57.6356 12.862 59.7036 11.432 64.5876 10.904C64.4996 9.892 63.9716 9.298 62.6956 9.298C61.7056 9.298 60.6716 9.694 59.4176 10.398L58.0536 7.824C59.7036 6.834 61.4856 6.174 63.4436 6.174C66.6776 6.174 68.5036 7.978 68.5036 11.894V19H65.3136L65.0496 17.746H64.9396C63.9056 18.67 62.7396 19.308 61.3536 19.308ZM62.6956 16.272C63.4876 16.272 64.0156 15.898 64.5876 15.282V13.28C62.1456 13.588 61.3536 14.314 61.3536 15.194C61.3536 15.92 61.8816 16.272 62.6956 16.272ZM75.0914 19.308C72.4074 19.308 71.5274 17.548 71.5274 14.93V1.422H75.4434V15.062C75.4434 15.898 75.8174 16.14 76.1254 16.14C76.2574 16.14 76.3454 16.14 76.5654 16.096L77.0274 18.978C76.6094 19.154 75.9714 19.308 75.0914 19.308ZM90.9214 19.308C86.4554 19.308 83.4194 16.096 83.4194 10.728C83.4194 5.36 86.4554 2.324 90.9214 2.324C95.3874 2.324 98.4234 5.382 98.4234 10.728C98.4234 16.096 95.3874 19.308 90.9214 19.308ZM90.9214 15.92C93.0774 15.92 94.4194 13.896 94.4194 10.728C94.4194 7.56 93.0774 5.69 90.9214 5.69C88.7654 5.69 87.4454 7.56 87.4454 10.728C87.4454 13.896 88.7654 15.92 90.9214 15.92ZM101.814 19V6.064C101.814 3.512 103.156 1.356 106.676 1.356C107.754 1.356 108.722 1.576 109.316 1.818L108.612 4.7C108.216 4.524 107.842 4.414 107.16 4.414C106.368 4.414 105.73 4.92 105.73 6.042V19H101.814ZM109.866 19V5.998C109.866 3.358 111.12 1.114 114.596 1.114C115.696 1.114 116.598 1.334 117.148 1.532L116.466 4.436C116.048 4.26 115.586 4.172 115.168 4.172C114.31 4.172 113.782 4.634 113.782 5.888V19H109.866ZM100.142 9.54V6.636L102.056 6.482H116.004V9.54H100.142ZM117.94 19V6.482H121.878V19H117.94ZM119.898 4.744C118.6 4.744 117.72 3.952 117.72 2.72C117.72 1.51 118.6 0.717999 119.898 0.717999C121.196 0.717999 122.098 1.51 122.098 2.72C122.098 3.952 121.196 4.744 119.898 4.744ZM130.524 19.308C127.004 19.308 124.298 16.888 124.298 12.73C124.298 8.594 127.378 6.174 130.876 6.174C132.394 6.174 133.582 6.702 134.528 7.516L132.702 10.002C132.13 9.54 131.646 9.342 131.118 9.342C129.38 9.342 128.302 10.662 128.302 12.73C128.302 14.82 129.446 16.14 130.964 16.14C131.756 16.14 132.504 15.766 133.142 15.26L134.66 17.834C133.428 18.912 131.844 19.308 130.524 19.308ZM141.614 19.308C138.006 19.308 135.234 16.888 135.234 12.73C135.234 8.682 138.16 6.174 141.174 6.174C144.782 6.174 146.542 8.792 146.542 12.202C146.542 12.906 146.454 13.588 146.366 13.896H139.018C139.37 15.612 140.558 16.316 142.142 16.316C143.044 16.316 143.88 16.052 144.782 15.524L146.08 17.878C144.782 18.802 143.066 19.308 141.614 19.308ZM138.952 11.322H143.22C143.22 10.09 142.67 9.166 141.24 9.166C140.162 9.166 139.216 9.848 138.952 11.322Z" fill="white"/>
</svg>
