<svg width="94" height="105" viewBox="0 0 94 105" fill="none" xmlns="http://www.w3.org/2000/svg">
<path d="M37.2159 15.2479C38.6985 15.9718 40.0024 16.5109 40.977 16.8546C41.4583 17.0342 41.8632 17.1477 42.1382 17.2346C42.4132 17.3215 42.57 17.3581 42.57 17.3581C42.1093 17.3021 42.4357 16.1776 41.7272 13.9733C41.2958 12.6383 39.173 11.3861 37.0161 10.7507C36.4739 10.5978 35.9414 10.469 35.4405 10.3728C34.9336 10.2884 34.4706 10.2212 34.0733 10.1795C33.2668 10.1199 32.753 10.1116 32.753 10.1116C32.753 10.1116 32.8678 10.3545 33.081 10.7312C33.2929 11.1129 33.6123 11.6146 33.9906 12.1671C34.766 13.2823 35.762 14.5371 37.2145 15.253L37.2159 15.2479ZM36.8764 12.3604C37.1489 12.4869 37.434 12.6061 37.7191 12.7252C38.0061 12.8476 38.2822 12.9804 38.5614 13.1114C39.1195 13.3653 39.6317 13.6795 40.0603 14.025C40.5273 14.4077 40.8693 14.8752 41.1894 15.3342C41.5019 15.8019 41.7716 16.2984 42.0785 16.7566C41.1047 16.0397 40.6266 15.2483 39.7345 14.4673C38.9182 13.7441 37.6723 13.0996 36.8764 12.3604Z" fill="url(#paint0_linear_16_76)"/>
<path d="M39.6505 21.5808C40.2304 21.013 40.6871 20.2537 41.4221 19.859C42.2348 19.4152 43.3435 19.4105 44.3623 19.2501C43.6515 19.8044 42.7769 19.8985 41.9526 20.2855C41.1915 20.6572 40.4785 21.3399 39.6473 21.5826L39.6505 21.5808ZM42.7983 22.6393C43.7276 21.8317 44.2936 20.9459 44.6075 20.2479C44.9232 19.5531 44.9887 19.0494 44.9887 19.0494C44.9954 19.2446 44.6575 19.1516 43.9946 18.988C43.6641 18.9077 43.2533 18.806 42.7769 18.7083C42.2902 18.6293 41.7419 18.5393 41.1291 18.4992C39.6315 18.4108 38.59 19.6559 37.9187 20.8736C37.5799 21.4844 37.3262 22.0883 37.1558 22.5425C36.9835 22.9935 36.8926 23.2916 36.8926 23.2916C36.8926 23.2916 37.1428 23.3208 37.5433 23.3607C37.943 23.4137 38.5083 23.4304 39.1256 23.4637C40.3687 23.4787 41.878 23.4333 42.7983 22.6393Z" fill="url(#paint1_linear_16_76)"/>
<path d="M44.5836 25.3274C45.3109 24.8313 45.9422 24.1025 46.7961 23.8256C47.2642 23.6739 47.797 23.6416 48.355 23.6456C48.9053 23.6582 49.4762 23.7141 50.031 23.7199C49.1706 24.1912 48.2424 24.1045 47.2801 24.3847C46.3988 24.6437 45.5292 25.2093 44.5786 25.3261L44.5836 25.3274ZM47.7758 27.0508C48.9047 26.3609 49.6607 25.5178 50.1168 24.8309C50.5729 24.144 50.7326 23.6198 50.7326 23.6198C50.7101 23.8234 50.3543 23.6773 49.6854 23.3857C49.351 23.24 48.9399 23.0495 48.4422 22.8709C47.946 22.6873 47.3813 22.4881 46.7276 22.3403C46.3337 22.2458 45.9565 22.2391 45.5951 22.3037C45.2291 22.3752 44.8803 22.5131 44.5526 22.7023C43.8986 23.0757 43.3232 23.6366 42.8439 24.2098C41.8859 25.3644 41.2796 26.57 41.2796 26.57C41.2796 26.57 41.5437 26.6674 41.9838 26.7903C42.4206 26.9151 43.0152 27.0928 43.6912 27.2277C45.026 27.5117 46.6593 27.7251 47.7772 27.0457L47.7758 27.0508Z" fill="url(#paint2_linear_16_76)"/>
<path d="M49.5926 30.6017C50.4529 30.2109 51.2548 29.5573 52.2026 29.4209C52.7248 29.3482 53.2944 29.409 53.8815 29.5148C54.464 29.6274 55.0545 29.7906 55.6366 29.895C54.6435 30.2396 53.6819 29.9773 52.6134 30.1029C51.6345 30.2149 50.6159 30.6547 49.5895 30.6035L49.5926 30.6017ZM52.659 33.0034C53.9752 32.4764 54.9243 31.7252 55.5277 31.0803C56.1328 30.4387 56.3978 29.913 56.3978 29.913C56.338 30.1254 55.9878 29.9082 55.3321 29.4778C55.0083 29.2624 54.6055 28.9909 54.1135 28.7116C53.6227 28.4274 53.0613 28.1162 52.4016 27.8406C52.0047 27.6674 51.6085 27.5911 51.2123 27.5954C50.8128 27.6015 50.4196 27.6845 50.0362 27.8212C49.2756 28.0909 48.5623 28.5747 47.9499 29.0935C46.7267 30.1343 45.8644 31.2929 45.8644 31.2929C45.8644 31.2929 46.1287 31.4495 46.5727 31.6676C47.0135 31.8874 47.6137 32.1848 48.3075 32.4534C49.6678 33.0022 51.3538 33.5198 52.6577 33.0084L52.659 33.0034Z" fill="url(#paint3_linear_16_76)"/>
<path d="M53.9357 37.0441C54.9077 36.7879 55.8708 36.2445 56.8894 36.2748C57.4515 36.2934 58.0356 36.4602 58.6327 36.6788C59.2266 36.8992 59.8093 37.1812 60.4064 37.3998C59.2998 37.577 58.3402 37.1272 57.1962 37.0634C56.151 37.0018 55.0029 37.2835 53.9307 37.0427L53.9357 37.0441ZM56.7026 40.11C58.1832 39.8016 59.32 39.1918 60.0744 38.6249C60.8325 38.0644 61.2073 37.56 61.2073 37.56C61.1047 37.7717 60.7747 37.4794 60.1713 36.9044C59.8696 36.6169 59.5011 36.2579 59.0309 35.8771C58.5703 35.4907 58.0348 35.0629 57.3933 34.6497C56.6325 34.1401 55.7636 34.0531 54.9138 34.2049C54.0653 34.3517 53.2341 34.7341 52.4915 35.1671C51.0149 36.0408 49.9035 37.106 49.9035 37.106C49.9035 37.106 50.153 37.3177 50.5791 37.6223C51.0053 37.9269 51.5717 38.3496 52.2537 38.7521C53.5773 39.5679 55.243 40.4105 56.7077 40.1113L56.7026 40.11Z" fill="url(#paint4_linear_16_76)"/>
<path d="M57.2748 44.532C58.3375 44.4478 59.4502 44.068 60.5083 44.2916C61.09 44.4174 61.6682 44.7062 62.2479 45.0492C62.8214 45.3958 63.3754 45.8045 63.957 46.1506C62.7622 46.1162 61.8578 45.4608 60.6756 45.1692C59.5937 44.9043 58.3459 44.9767 57.2729 44.5288L57.2748 44.532ZM59.5481 48.2344C61.1504 48.2031 62.4638 47.7963 63.3627 47.3621C64.2634 46.931 64.7581 46.4801 64.7581 46.4801C64.6104 46.6798 64.3234 46.3076 63.8069 45.5893C63.5486 45.2301 63.2358 44.7838 62.8199 44.2912C62.4122 43.7981 61.9418 43.2479 61.348 42.697C60.9924 42.3602 60.6066 42.1255 60.1815 41.977C59.7533 41.8304 59.3053 41.7671 58.8461 41.7653C57.931 41.76 56.9895 42.0028 56.1362 42.3176C55.2829 42.6323 54.5165 43.024 53.9619 43.3272C53.4074 43.6305 53.0621 43.8552 53.0621 43.8552C53.0621 43.8552 53.2817 44.1181 53.6654 44.5108C54.0522 44.9016 54.5549 45.4416 55.186 45.9836C56.399 47.0707 57.9667 48.258 59.5499 48.2376L59.5481 48.2344Z" fill="url(#paint5_linear_16_76)"/>
<path d="M59.1848 52.6967C60.2971 52.8085 61.5464 52.6802 62.5525 53.137C63.1106 53.3909 63.6178 53.8139 64.1161 54.3097C64.5685 54.8067 65.0075 55.3834 65.4755 55.9222C64.8867 55.7031 64.4057 55.3624 63.9421 55.0074C63.4784 54.6525 63.0433 54.281 62.4752 53.9949C61.9658 53.7299 61.3794 53.5517 60.8102 53.3593C60.5265 53.2648 60.2429 53.1702 59.9764 53.0614C59.7037 52.9563 59.4299 52.8348 59.188 52.6949L59.1848 52.6967ZM60.3293 56.369C61.9381 56.8633 63.388 56.9792 64.4384 56.881C65.4912 56.7942 66.146 56.5178 66.146 56.5178C65.9161 56.6632 65.8123 56.1895 65.5014 55.3058C65.3453 54.8665 65.2094 54.3223 64.9087 53.7208C64.6263 53.1214 64.3218 52.4544 63.8246 51.7842C63.5388 51.3774 63.1983 51.0742 62.7966 50.8486C62.3825 50.6091 61.9274 50.4525 61.4529 50.358C60.5038 50.169 59.476 50.2329 58.5278 50.3907C57.5746 50.5471 56.701 50.7973 56.0632 51.0004C55.4254 51.2034 55.022 51.3643 55.022 51.3643C55.022 51.3643 55.1935 51.6761 55.5115 52.1533C55.6874 52.4287 55.8201 52.5851 56.0127 52.8085C56.1935 53.026 56.4362 53.2628 56.6636 53.517C57.0918 54.0237 57.6798 54.5864 58.2525 55.1156C58.5528 55.3785 58.8867 55.6262 59.2387 55.8465C59.5725 56.0647 59.9371 56.2481 60.3357 56.3653L60.3293 56.369Z" fill="url(#paint6_linear_16_76)"/>
<path d="M58.2323 60.0914C59.2376 60.7011 60.4631 61.1118 61.2636 62.0135C61.7178 62.5137 61.984 63.1436 62.2458 63.8396C62.5126 64.5368 62.6817 65.2779 62.9049 65.9877C62.4208 65.5386 62.0999 65.0123 61.8077 64.4694C61.5005 63.9225 61.2004 63.3588 60.8058 62.8369C60.0861 61.8843 58.8706 61.0867 58.2323 60.0914ZM57.6932 64.4476C59.0577 65.5913 60.4471 66.2419 61.5232 66.5482C62.059 66.7048 62.5143 66.7807 62.8374 66.8187C63.1537 66.8521 63.3377 66.8475 63.3377 66.8475C63.0646 66.9035 63.1008 66.3786 63.196 65.4045C63.2829 64.431 63.3652 62.9645 63.0922 61.25C62.8887 60.2069 62.2623 59.4377 61.4221 58.8936C60.5669 58.3454 59.5353 58.0133 58.5428 57.7858C57.5522 57.5615 56.6007 57.4416 55.8984 57.3642C55.1962 57.2867 54.747 57.2581 54.747 57.2581C54.747 57.2581 55.0604 58.4622 55.4177 59.823C55.4767 60.0135 55.5344 60.2089 55.5953 60.4025C55.6434 60.6034 55.7016 60.807 55.7648 61.0119C55.8848 61.4255 56.0613 61.8488 56.2191 62.2618C56.5448 63.0903 57.0197 63.8835 57.6982 64.4489L57.6932 64.4476Z" fill="url(#paint7_linear_16_76)"/>
<path d="M54.0592 67.8884C54.8613 68.8442 55.9648 69.6387 56.4803 70.8108C56.6196 71.1328 56.7211 71.4851 56.7972 71.852C56.8651 72.2194 56.9026 72.6002 56.9309 72.9946C56.9859 73.7804 56.9872 74.6056 57.0321 75.3887C56.2775 74.236 56.2532 72.8861 55.7572 71.5714C55.2989 70.3663 54.3338 69.1869 54.0642 67.8897L54.0592 67.8884ZM52.0288 72.5931C53.1529 74.1212 54.436 75.0874 55.473 75.6492C56.5018 76.2115 57.2599 76.3711 57.2599 76.3711C56.9666 76.3625 57.1313 75.8397 57.4778 74.8602C57.6458 74.3651 57.8443 73.7464 58.0552 73.0317C58.2506 72.3047 58.4478 71.4708 58.585 70.5402C58.7365 69.4066 58.3906 68.4034 57.7405 67.5419C57.1036 66.6813 56.2155 65.9658 55.3186 65.3823C54.4218 64.7988 53.5228 64.3437 52.8506 64.0244C52.1753 63.707 51.7305 63.5317 51.7305 63.5317C51.7305 63.5317 51.6499 63.8917 51.5715 64.4833C51.5185 64.7808 51.4524 65.1366 51.4038 65.5374C51.3814 65.741 51.3544 65.9514 51.3279 66.17C51.2932 66.3891 51.264 66.6177 51.2403 66.8559C51.1533 67.7999 51.0612 68.8526 51.1575 69.8644C51.2306 70.8726 51.4693 71.8445 52.0275 72.5981L52.0288 72.5931Z" fill="url(#paint8_linear_16_76)"/>
<path d="M47.3153 75.7804C47.9742 76.929 48.9833 77.9348 49.3154 79.2594C49.683 80.7117 49.2958 82.5024 49.2165 84.1578C48.557 82.8612 48.7324 81.4384 48.4199 79.9713C48.136 78.6273 47.3363 77.2422 47.3203 75.7818L47.3153 75.7804ZM44.2822 80.6955C45.264 82.4328 46.521 83.5666 47.5412 84.261C48.5614 84.9553 49.3399 85.209 49.3399 85.209C49.0332 85.17 49.2635 84.6432 49.7443 83.6539C50.2234 82.6616 50.9488 81.1923 51.5737 79.277C52.3337 76.9492 50.867 74.776 49.2795 73.202C47.6802 71.6221 45.9467 70.5814 45.9467 70.5814C45.9467 70.5814 45.7488 70.9879 45.4826 71.6584C45.3495 71.9936 45.1775 72.3936 45.0166 72.8423C44.8557 73.291 44.6827 73.7848 44.5148 74.3095C43.8691 76.4019 43.3164 78.9786 44.2872 80.6969L44.2822 80.6955Z" fill="url(#paint9_linear_16_76)"/>
<path d="M39.1968 83.6062C39.8084 84.8711 40.8274 85.9601 41.1047 87.3883C41.4131 88.9511 40.9431 90.8701 40.9143 92.6276C40.5455 91.9595 40.4075 91.2428 40.3294 90.4831C40.2524 89.7398 40.2357 88.9616 40.0979 88.1644C39.8428 86.7234 39.0882 85.2106 39.1968 83.6062ZM35.4974 89.3508C36.5734 91.1777 38.0158 92.2213 39.1383 92.8651C40.2653 93.502 41.0929 93.7231 41.0929 93.7231C40.435 93.6709 41.9292 91.4613 43.5131 87.4379C44.459 84.9985 43.1617 82.6047 41.6367 80.8082C40.1117 79.0118 38.3576 77.8178 38.3576 77.8178C38.3576 77.8178 38.077 78.2721 37.679 79.0228C37.4746 79.4034 37.2431 79.8548 37.0013 80.3544C36.7568 80.864 36.4962 81.4338 36.2566 82.0254C35.2777 84.4076 34.4445 87.4978 35.5038 89.3471L35.4974 89.3508Z" fill="url(#paint10_linear_16_76)"/>
<path d="M47.5801 17.8878C47.5993 18.8467 47.8758 19.7078 47.5785 20.5741C47.4855 20.0603 47.3131 19.5414 47.1659 19.0292C47.0186 18.5169 46.9055 17.9977 46.891 17.5317C46.874 16.6648 47.3307 15.9055 47.5175 15.0903C47.8264 16.0514 47.5653 17.0026 47.5769 17.8896L47.5801 17.8878ZM46.9635 11.4711C46.9635 11.4711 46.1007 12.4012 45.518 13.6695C44.9384 14.936 44.5988 16.5298 45.4774 17.8312C46.2016 18.9166 46.8056 19.7497 47.2072 20.3056C47.5933 20.879 47.7758 21.1803 47.5929 21.2308C47.5929 21.2308 48.0502 21.0091 48.6309 20.5087C49.2097 20.0051 49.9187 19.2272 50.3611 18.0612C50.5771 17.4875 50.5101 16.7764 50.2636 16.0335C50.0017 15.308 49.5883 14.5259 49.0943 13.8539C48.852 13.5151 48.5975 13.1919 48.3582 12.9022C48.1125 12.6163 47.872 12.3613 47.6653 12.1502C47.2533 11.7231 46.9649 11.4661 46.9649 11.4661L46.9635 11.4711Z" fill="url(#paint11_linear_16_76)"/>
<path d="M53.5068 22.6281C53.3713 23.6424 53.5021 24.6257 53.0563 25.4846C53.0332 24.9303 52.9426 24.3473 52.8803 23.7691C52.8071 23.2015 52.7626 22.6469 52.8376 22.1376C52.9717 21.2089 53.5897 20.4793 53.9236 19.647C54.0871 20.7089 53.6276 21.6985 53.5068 22.6281ZM53.9788 15.7311C53.9788 15.7311 52.9048 16.5672 52.0591 17.8136C51.2071 19.0637 50.5838 20.6731 51.2824 22.2138C51.8603 23.4939 52.3755 24.4672 52.7001 25.1396C53.0293 25.8052 53.1686 26.1567 52.9628 26.1824C52.9628 26.1824 53.4833 26.0259 54.1831 25.5922C54.8811 25.1553 55.7602 24.4445 56.4276 23.2713C57.0927 22.1164 56.5876 20.2055 55.7981 18.6029C55.4115 17.8011 54.9478 17.0861 54.5992 16.5631C54.2365 16.0525 53.9775 15.7361 53.9775 15.7361L53.9788 15.7311Z" fill="url(#paint12_linear_16_76)"/>
<path d="M59.3683 29.151C59.0553 30.1958 59.0133 31.2619 58.3879 32.0889C58.4599 31.501 58.4793 30.8586 58.5039 30.2473C58.5284 29.6359 58.5767 29.0362 58.7496 28.5128C59.0611 27.5536 59.8252 26.9006 60.3322 26.0742C60.3279 27.2203 59.6616 28.1896 59.3701 29.1541L59.3683 29.151ZM61.084 21.9468C61.084 21.9468 59.804 22.6392 58.6888 23.8082C58.1294 24.3896 57.6115 25.0868 57.2933 25.8508C56.9782 26.6129 56.8598 27.4437 57.09 28.3274C57.8562 31.2269 58.5921 32.8393 58.1661 32.8142C58.1661 32.8142 58.7456 32.738 59.5583 32.4043C60.3724 32.0656 61.4296 31.4722 62.3436 30.3515C63.2408 29.2532 63.0441 27.1346 62.4974 25.2986C62.2115 24.392 61.8762 23.5394 61.5838 22.9374C61.2945 22.3335 61.0795 21.9536 61.0795 21.9536L61.084 21.9468Z" fill="url(#paint13_linear_16_76)"/>
<path d="M64.3748 37.0951C63.8513 38.1428 63.6242 39.2481 62.8054 40.0047C63.2015 38.7806 63.2926 37.3514 63.8457 36.3036C64.334 35.3566 65.2684 34.8002 65.9446 34.0244C65.7287 35.2376 64.8685 36.1281 64.378 37.0933L64.3748 37.0951ZM67.4689 29.8024C67.4689 29.8024 66.0014 30.3024 64.6198 31.333C63.928 31.8468 63.2586 32.4874 62.7864 33.2344C62.3128 33.9865 62.0537 34.8307 62.133 35.8057C62.4198 38.9989 62.8823 40.8285 62.4401 40.7238C62.4401 40.7238 63.0669 40.7516 63.9862 40.5512C64.9006 40.3495 66.1306 39.9231 67.2914 38.914C67.8625 38.4191 68.196 37.6082 68.3582 36.6547C68.519 35.7063 68.4844 34.625 68.3675 33.5997C68.2284 32.5873 68.0311 31.6211 67.824 30.9317C67.6264 30.2367 67.4703 29.7974 67.4703 29.7974L67.4689 29.8024Z" fill="url(#paint14_linear_16_76)"/>
<path d="M68.1084 46.4053C67.725 46.902 67.4273 47.4296 67.1002 47.9065C66.7605 48.3907 66.3945 48.8222 65.8901 49.1388C66.551 47.9398 66.9207 46.4641 67.7059 45.4729C68.3962 44.5746 69.4814 44.1767 70.3374 43.4919C70.1043 44.1093 69.7227 44.6092 69.3172 45.0678C68.9004 45.5287 68.4565 45.9502 68.1052 46.4071L68.1084 46.4053ZM72.738 39.3401C72.738 39.3401 72.3301 39.3977 71.7162 39.5615C71.1024 39.7253 70.2858 39.9934 69.4693 40.4013C68.656 40.8073 67.8277 41.3491 67.1913 42.0469C66.8747 42.3949 66.6015 42.7813 66.4014 43.2061C66.2044 43.629 66.0709 44.0958 66.0146 44.6154C65.6982 48.0128 65.8024 50.0154 65.363 49.8201C65.363 49.8201 66.009 49.9766 67.0128 49.9519C68.0135 49.9291 69.3787 49.7296 70.7844 48.9095C71.4811 48.5073 71.9906 47.7218 72.354 46.7496C72.6933 45.787 72.893 44.634 72.9525 43.5323C73.0108 42.4355 72.9776 41.3788 72.8922 40.6064C72.8182 39.8317 72.7393 39.3351 72.7393 39.3351L72.738 39.3401Z" fill="url(#paint15_linear_16_76)"/>
<path d="M69.5308 57.4946C68.4301 58.2698 67.5004 59.209 66.27 59.4069C66.546 59.1797 66.8188 58.9248 67.0925 58.6567L67.5008 58.2473C67.6274 58.1064 67.7558 57.9688 67.8823 57.8279C68.3921 57.271 68.9093 56.7267 69.4836 56.3401C70.4775 55.6223 71.6966 55.5665 72.7825 55.0962C72.3426 55.7229 71.8086 56.1498 71.2306 56.5005C70.6443 56.8517 70.0478 57.141 69.5308 57.4946ZM76.3773 50.9411C76.3773 50.9411 75.9344 50.8791 75.2616 50.8821C74.5857 50.8869 73.6786 50.9616 72.743 51.1926C72.2743 51.3065 71.7998 51.4619 71.3378 51.6608C70.8676 51.8603 70.4149 52.1048 69.9947 52.3982C69.5744 52.6916 69.1936 53.0386 68.8717 53.4362C68.7108 53.635 68.564 53.851 68.4378 54.0806C68.3002 54.3125 68.1668 54.559 68.0608 54.8235C67.8812 55.2618 67.7197 55.6727 67.5731 56.0581C67.4165 56.4407 67.2434 56.7948 67.1035 57.1255C66.9649 57.4512 66.8348 57.755 66.7147 58.0319C66.5878 58.3042 66.4575 58.5489 66.3486 58.7643C65.9096 59.6276 65.6625 60.0372 65.4813 59.841C65.4813 59.841 66.0264 60.2633 66.9972 60.6812C67.9676 61.0909 69.359 61.5244 71.1045 61.3002C71.9818 61.1961 72.7929 60.5584 73.5632 59.6223C73.7499 59.3874 73.9508 59.1402 74.1155 58.8672C74.2803 58.5941 74.4409 58.3066 74.5928 58.0113C74.7479 57.7142 74.8925 57.4063 75.0302 57.0938C75.1711 56.7795 75.302 56.4625 75.4028 56.1375C75.6144 55.4901 75.7914 54.8415 75.9394 54.2308C76.0956 53.6197 76.149 53.0509 76.2218 52.5599C76.2833 52.0712 76.3263 51.6609 76.3508 51.38C76.3766 51.094 76.3819 50.9342 76.3819 50.9342L76.3773 50.9411Z" fill="url(#paint16_linear_16_76)"/>
<path d="M66.396 68.9193C64.9964 69.2063 63.8104 69.8191 62.4945 69.575C63.2219 69.3287 63.9301 68.9537 64.6453 68.6128C65.0003 68.4416 65.3659 68.2814 65.7161 68.1385C66.0613 67.9943 66.4079 67.8746 66.7538 67.7978C68.0122 67.516 69.2295 67.9568 70.474 67.9668C69.125 68.7456 67.6799 68.6524 66.401 68.9206L66.396 68.9193ZM75.5857 65.6382C75.5857 65.6382 75.1881 65.3976 74.5379 65.1164C73.8878 64.8353 72.9838 64.5186 71.976 64.338C70.9714 64.1556 69.8644 64.1043 68.8253 64.3103C67.7999 64.5254 66.7758 64.9557 65.9678 65.8119C65.2754 66.5081 64.6651 67.1189 64.1474 67.6549C63.6224 68.1783 63.1718 68.6248 62.8065 68.984C62.0544 69.6723 61.6607 69.997 61.5468 69.7409C61.5468 69.7409 61.96 70.3537 62.8004 71.0968C63.6454 71.833 64.9037 72.7119 66.6915 73.0901C67.5727 73.2718 68.6047 73.0021 69.6447 72.4228C70.6723 71.8295 71.7325 70.9548 72.6192 69.9558C72.8464 69.7102 73.0637 69.462 73.2745 69.2174C73.4817 68.9665 73.667 68.707 73.8497 68.4576C74.2099 67.9573 74.5305 67.4842 74.7959 67.0768C75.2983 66.2277 75.5844 65.6432 75.5844 65.6432L75.5857 65.6382Z" fill="url(#paint17_linear_16_76)"/>
<path d="M60.0542 79.0654C58.5805 79.0183 57.234 79.3679 55.9321 78.8616C57.5059 78.6264 59.1874 77.9902 60.6497 78.0397C61.9904 78.0916 63.1115 78.8505 64.3527 79.1928C62.8647 79.5987 61.3966 79.0909 60.0542 79.0654ZM69.972 78.5957C69.972 78.5957 69.6386 78.246 69.0611 77.7747C68.4836 77.3034 67.6651 76.7086 66.7144 76.2155C65.7619 75.7192 64.6749 75.3133 63.5735 75.191C62.4722 75.0687 61.3646 75.2296 60.312 75.8458C58.5846 76.8727 57.2656 77.7401 56.3682 78.3091C55.474 78.8762 54.9871 79.1276 54.924 78.8421C54.924 78.8421 55.2297 79.5552 55.9606 80.4758C56.6947 81.3947 57.8509 82.523 59.6088 83.2828C61.3417 84.0359 63.9489 83.0855 66.1177 81.7063C66.6607 81.3758 67.1694 80.9932 67.6341 80.6444C68.0987 80.2957 68.5178 79.9563 68.861 79.6396C69.5532 79.0239 69.977 78.5971 69.977 78.5971L69.972 78.5957Z" fill="url(#paint18_linear_16_76)"/>
<path d="M52.0929 88.2067C50.5871 87.979 49.1591 88.202 47.8444 87.5633C49.5028 87.4529 51.303 86.9854 52.8034 87.2331C54.1712 87.4642 55.2438 88.4036 56.4721 88.944C54.9222 89.1103 53.477 88.4072 52.0929 88.2067ZM62.1869 89.3719C62.1869 89.3719 60.9868 87.7267 59.1825 86.3796C57.3763 85.0292 54.9991 83.9535 52.6899 84.9352C48.8681 86.5445 46.8802 88.0607 46.7886 87.4613C46.7886 87.4613 47.8526 90.5532 51.3712 92.4523C53.1115 93.3875 55.7582 92.7404 58.0409 91.7274C60.3177 90.7264 62.1837 89.3737 62.1837 89.3737L62.1869 89.3719Z" fill="url(#paint19_linear_16_76)"/>
<path d="M44.2717 96.5766C43.8916 96.5207 43.5166 96.4958 43.1458 96.4854C42.7819 96.4795 42.4211 96.4718 42.0653 96.4654C41.3388 96.4486 40.6504 96.4098 39.9212 96.1828C41.5856 95.8402 43.3451 95.3538 44.888 95.6236C46.2736 95.8782 47.4079 96.8583 48.6578 97.4582C47.89 97.4949 47.1573 97.3206 46.4214 97.1187C45.6823 96.9185 44.9576 96.6846 44.2685 96.5784L44.2717 96.5766ZM54.2988 98.3607C54.2988 98.3607 53.077 96.6264 51.2711 95.115C49.4639 93.6085 47.0381 92.3237 44.67 93.2843C42.7181 94.0767 41.282 94.9396 40.342 95.5671C39.8736 95.8799 39.5265 96.1311 39.2692 96.2584C39.0256 96.3949 38.8785 96.412 38.8215 96.2544C38.8215 96.2544 39.2543 97.0041 40.2467 97.8119C40.7415 98.2208 41.369 98.6464 42.1189 99.0563C42.8657 99.468 43.7368 99.8673 44.6662 100.28C44.8943 100.381 45.1251 100.472 45.3454 100.552C45.5676 100.636 45.7778 100.714 46.0235 100.75C46.2614 100.794 46.4939 100.83 46.724 100.853C46.8365 100.865 46.9491 100.876 47.0616 100.887C47.1832 100.885 47.308 100.881 47.4346 100.879C47.6824 100.868 47.9264 100.85 48.1618 100.824C48.4036 100.794 48.678 100.733 48.9265 100.679C49.4139 100.575 49.9612 100.399 50.4525 100.221C50.9469 100.042 51.4635 99.8198 51.9041 99.6205C52.3638 99.4101 52.787 99.1954 53.1348 99.0116C53.4794 98.8296 53.7866 98.6564 53.987 98.5407C54.1907 98.4232 54.3002 98.3557 54.3002 98.3557L54.2988 98.3607Z" fill="url(#paint20_linear_16_76)"/>
<defs>
<linearGradient id="paint0_linear_16_76" x1="41.8609" y1="96.486" x2="37.4463" y2="11.4948" gradientUnits="userSpaceOnUse">
<stop stop-color="#CFA841"/>
<stop offset="0.18" stop-color="#EACD66"/>
<stop offset="0.21" stop-color="#EBD47A"/>
<stop offset="0.29" stop-color="#EFE9B6"/>
<stop offset="0.44" stop-color="#CDA53E"/>
<stop offset="0.47" stop-color="#D6B658"/>
<stop offset="0.53" stop-color="#E2CB78"/>
<stop offset="0.57" stop-color="#EAD88C"/>
<stop offset="0.6" stop-color="#EDDD94"/>
<stop offset="0.65" stop-color="#E5CC73"/>
<stop offset="0.69" stop-color="#E0C15E"/>
<stop offset="0.72" stop-color="#DFBD56"/>
<stop offset="0.88" stop-color="#F4F6CE"/>
<stop offset="1" stop-color="#D7B34C"/>
</linearGradient>
<linearGradient id="paint1_linear_16_76" x1="44.7527" y1="96.337" x2="40.3381" y2="11.3458" gradientUnits="userSpaceOnUse">
<stop stop-color="#CFA841"/>
<stop offset="0.18" stop-color="#EACD66"/>
<stop offset="0.21" stop-color="#EBD47A"/>
<stop offset="0.29" stop-color="#EFE9B6"/>
<stop offset="0.44" stop-color="#CDA53E"/>
<stop offset="0.47" stop-color="#D6B658"/>
<stop offset="0.53" stop-color="#E2CB78"/>
<stop offset="0.57" stop-color="#EAD88C"/>
<stop offset="0.6" stop-color="#EDDD94"/>
<stop offset="0.65" stop-color="#E5CC73"/>
<stop offset="0.69" stop-color="#E0C15E"/>
<stop offset="0.72" stop-color="#DFBD56"/>
<stop offset="0.88" stop-color="#F4F6CE"/>
<stop offset="1" stop-color="#D7B34C"/>
</linearGradient>
<linearGradient id="paint2_linear_16_76" x1="49.6077" y1="96.0838" x2="45.1949" y2="11.0957" gradientUnits="userSpaceOnUse">
<stop stop-color="#CFA841"/>
<stop offset="0.18" stop-color="#EACD66"/>
<stop offset="0.21" stop-color="#EBD47A"/>
<stop offset="0.29" stop-color="#EFE9B6"/>
<stop offset="0.44" stop-color="#CDA53E"/>
<stop offset="0.47" stop-color="#D6B658"/>
<stop offset="0.53" stop-color="#E2CB78"/>
<stop offset="0.57" stop-color="#EAD88C"/>
<stop offset="0.6" stop-color="#EDDD94"/>
<stop offset="0.65" stop-color="#E5CC73"/>
<stop offset="0.69" stop-color="#E0C15E"/>
<stop offset="0.72" stop-color="#DFBD56"/>
<stop offset="0.88" stop-color="#F4F6CE"/>
<stop offset="1" stop-color="#D7B34C"/>
</linearGradient>
<linearGradient id="paint3_linear_16_76" x1="54.4431" y1="95.8334" x2="50.0285" y2="10.8422" gradientUnits="userSpaceOnUse">
<stop stop-color="#CFA841"/>
<stop offset="0.18" stop-color="#EACD66"/>
<stop offset="0.21" stop-color="#EBD47A"/>
<stop offset="0.29" stop-color="#EFE9B6"/>
<stop offset="0.44" stop-color="#CDA53E"/>
<stop offset="0.47" stop-color="#D6B658"/>
<stop offset="0.53" stop-color="#E2CB78"/>
<stop offset="0.57" stop-color="#EAD88C"/>
<stop offset="0.6" stop-color="#EDDD94"/>
<stop offset="0.65" stop-color="#E5CC73"/>
<stop offset="0.69" stop-color="#E0C15E"/>
<stop offset="0.72" stop-color="#DFBD56"/>
<stop offset="0.88" stop-color="#F4F6CE"/>
<stop offset="1" stop-color="#D7B34C"/>
</linearGradient>
<linearGradient id="paint4_linear_16_76" x1="58.5126" y1="95.6229" x2="54.0979" y2="10.6317" gradientUnits="userSpaceOnUse">
<stop stop-color="#CFA841"/>
<stop offset="0.18" stop-color="#EACD66"/>
<stop offset="0.21" stop-color="#EBD47A"/>
<stop offset="0.29" stop-color="#EFE9B6"/>
<stop offset="0.44" stop-color="#CDA53E"/>
<stop offset="0.47" stop-color="#D6B658"/>
<stop offset="0.53" stop-color="#E2CB78"/>
<stop offset="0.57" stop-color="#EAD88C"/>
<stop offset="0.6" stop-color="#EDDD94"/>
<stop offset="0.65" stop-color="#E5CC73"/>
<stop offset="0.69" stop-color="#E0C15E"/>
<stop offset="0.72" stop-color="#DFBD56"/>
<stop offset="0.88" stop-color="#F4F6CE"/>
<stop offset="1" stop-color="#D7B34C"/>
</linearGradient>
<linearGradient id="paint5_linear_16_76" x1="61.4599" y1="95.4673" x2="57.0471" y2="10.4792" gradientUnits="userSpaceOnUse">
<stop stop-color="#CFA841"/>
<stop offset="0.18" stop-color="#EACD66"/>
<stop offset="0.21" stop-color="#EBD47A"/>
<stop offset="0.29" stop-color="#EFE9B6"/>
<stop offset="0.44" stop-color="#CDA53E"/>
<stop offset="0.47" stop-color="#D6B658"/>
<stop offset="0.53" stop-color="#E2CB78"/>
<stop offset="0.57" stop-color="#EAD88C"/>
<stop offset="0.6" stop-color="#EDDD94"/>
<stop offset="0.65" stop-color="#E5CC73"/>
<stop offset="0.69" stop-color="#E0C15E"/>
<stop offset="0.72" stop-color="#DFBD56"/>
<stop offset="0.88" stop-color="#F4F6CE"/>
<stop offset="1" stop-color="#D7B34C"/>
</linearGradient>
<linearGradient id="paint6_linear_16_76" x1="62.6868" y1="95.4028" x2="58.2708" y2="10.4165" gradientUnits="userSpaceOnUse">
<stop stop-color="#CFA841"/>
<stop offset="0.18" stop-color="#EACD66"/>
<stop offset="0.21" stop-color="#EBD47A"/>
<stop offset="0.29" stop-color="#EFE9B6"/>
<stop offset="0.44" stop-color="#CDA53E"/>
<stop offset="0.47" stop-color="#D6B658"/>
<stop offset="0.53" stop-color="#E2CB78"/>
<stop offset="0.57" stop-color="#EAD88C"/>
<stop offset="0.6" stop-color="#EDDD94"/>
<stop offset="0.65" stop-color="#E5CC73"/>
<stop offset="0.69" stop-color="#E0C15E"/>
<stop offset="0.72" stop-color="#DFBD56"/>
<stop offset="0.88" stop-color="#F4F6CE"/>
<stop offset="1" stop-color="#D7B34C"/>
</linearGradient>
<linearGradient id="paint7_linear_16_76" x1="60.8005" y1="95.5007" x2="56.3877" y2="10.5126" gradientUnits="userSpaceOnUse">
<stop stop-color="#CFA841"/>
<stop offset="0.18" stop-color="#EACD66"/>
<stop offset="0.21" stop-color="#EBD47A"/>
<stop offset="0.29" stop-color="#EFE9B6"/>
<stop offset="0.44" stop-color="#CDA53E"/>
<stop offset="0.47" stop-color="#D6B658"/>
<stop offset="0.53" stop-color="#E2CB78"/>
<stop offset="0.57" stop-color="#EAD88C"/>
<stop offset="0.6" stop-color="#EDDD94"/>
<stop offset="0.65" stop-color="#E5CC73"/>
<stop offset="0.69" stop-color="#E0C15E"/>
<stop offset="0.72" stop-color="#DFBD56"/>
<stop offset="0.88" stop-color="#F4F6CE"/>
<stop offset="1" stop-color="#D7B34C"/>
</linearGradient>
<linearGradient id="paint8_linear_16_76" x1="56.1982" y1="95.7435" x2="51.7836" y2="10.7522" gradientUnits="userSpaceOnUse">
<stop stop-color="#CFA841"/>
<stop offset="0.18" stop-color="#EACD66"/>
<stop offset="0.21" stop-color="#EBD47A"/>
<stop offset="0.29" stop-color="#EFE9B6"/>
<stop offset="0.44" stop-color="#CDA53E"/>
<stop offset="0.47" stop-color="#D6B658"/>
<stop offset="0.53" stop-color="#E2CB78"/>
<stop offset="0.57" stop-color="#EAD88C"/>
<stop offset="0.6" stop-color="#EDDD94"/>
<stop offset="0.65" stop-color="#E5CC73"/>
<stop offset="0.69" stop-color="#E0C15E"/>
<stop offset="0.72" stop-color="#DFBD56"/>
<stop offset="0.88" stop-color="#F4F6CE"/>
<stop offset="1" stop-color="#D7B34C"/>
</linearGradient>
<linearGradient id="paint9_linear_16_76" x1="48.6778" y1="96.1336" x2="44.2631" y2="11.1424" gradientUnits="userSpaceOnUse">
<stop stop-color="#CFA841"/>
<stop offset="0.18" stop-color="#EACD66"/>
<stop offset="0.21" stop-color="#EBD47A"/>
<stop offset="0.29" stop-color="#EFE9B6"/>
<stop offset="0.44" stop-color="#CDA53E"/>
<stop offset="0.47" stop-color="#D6B658"/>
<stop offset="0.53" stop-color="#E2CB78"/>
<stop offset="0.57" stop-color="#EAD88C"/>
<stop offset="0.6" stop-color="#EDDD94"/>
<stop offset="0.65" stop-color="#E5CC73"/>
<stop offset="0.69" stop-color="#E0C15E"/>
<stop offset="0.72" stop-color="#DFBD56"/>
<stop offset="0.88" stop-color="#F4F6CE"/>
<stop offset="1" stop-color="#D7B34C"/>
</linearGradient>
<linearGradient id="paint10_linear_16_76" x1="39.9305" y1="96.5883" x2="35.5158" y2="11.597" gradientUnits="userSpaceOnUse">
<stop stop-color="#CFA841"/>
<stop offset="0.18" stop-color="#EACD66"/>
<stop offset="0.21" stop-color="#EBD47A"/>
<stop offset="0.29" stop-color="#EFE9B6"/>
<stop offset="0.44" stop-color="#CDA53E"/>
<stop offset="0.47" stop-color="#D6B658"/>
<stop offset="0.53" stop-color="#E2CB78"/>
<stop offset="0.57" stop-color="#EAD88C"/>
<stop offset="0.6" stop-color="#EDDD94"/>
<stop offset="0.65" stop-color="#E5CC73"/>
<stop offset="0.69" stop-color="#E0C15E"/>
<stop offset="0.72" stop-color="#DFBD56"/>
<stop offset="0.88" stop-color="#F4F6CE"/>
<stop offset="1" stop-color="#D7B34C"/>
</linearGradient>
<linearGradient id="paint11_linear_16_76" x1="51.7399" y1="95.971" x2="47.3239" y2="10.9848" gradientUnits="userSpaceOnUse">
<stop stop-color="#CFA841"/>
<stop offset="0.18" stop-color="#EACD66"/>
<stop offset="0.21" stop-color="#EBD47A"/>
<stop offset="0.29" stop-color="#EFE9B6"/>
<stop offset="0.44" stop-color="#CDA53E"/>
<stop offset="0.47" stop-color="#D6B658"/>
<stop offset="0.53" stop-color="#E2CB78"/>
<stop offset="0.57" stop-color="#EAD88C"/>
<stop offset="0.6" stop-color="#EDDD94"/>
<stop offset="0.65" stop-color="#E5CC73"/>
<stop offset="0.69" stop-color="#E0C15E"/>
<stop offset="0.72" stop-color="#DFBD56"/>
<stop offset="0.88" stop-color="#F4F6CE"/>
<stop offset="1" stop-color="#D7B34C"/>
</linearGradient>
<linearGradient id="paint12_linear_16_76" x1="57.6269" y1="95.6684" x2="53.2122" y2="10.6771" gradientUnits="userSpaceOnUse">
<stop stop-color="#CFA841"/>
<stop offset="0.18" stop-color="#EACD66"/>
<stop offset="0.21" stop-color="#EBD47A"/>
<stop offset="0.29" stop-color="#EFE9B6"/>
<stop offset="0.44" stop-color="#CDA53E"/>
<stop offset="0.47" stop-color="#D6B658"/>
<stop offset="0.53" stop-color="#E2CB78"/>
<stop offset="0.57" stop-color="#EAD88C"/>
<stop offset="0.6" stop-color="#EDDD94"/>
<stop offset="0.65" stop-color="#E5CC73"/>
<stop offset="0.69" stop-color="#E0C15E"/>
<stop offset="0.72" stop-color="#DFBD56"/>
<stop offset="0.88" stop-color="#F4F6CE"/>
<stop offset="1" stop-color="#D7B34C"/>
</linearGradient>
<linearGradient id="paint13_linear_16_76" x1="63.4004" y1="95.3677" x2="58.9857" y2="10.3765" gradientUnits="userSpaceOnUse">
<stop stop-color="#CFA841"/>
<stop offset="0.18" stop-color="#EACD66"/>
<stop offset="0.21" stop-color="#EBD47A"/>
<stop offset="0.29" stop-color="#EFE9B6"/>
<stop offset="0.44" stop-color="#CDA53E"/>
<stop offset="0.47" stop-color="#D6B658"/>
<stop offset="0.53" stop-color="#E2CB78"/>
<stop offset="0.57" stop-color="#EAD88C"/>
<stop offset="0.6" stop-color="#EDDD94"/>
<stop offset="0.65" stop-color="#E5CC73"/>
<stop offset="0.69" stop-color="#E0C15E"/>
<stop offset="0.72" stop-color="#DFBD56"/>
<stop offset="0.88" stop-color="#F4F6CE"/>
<stop offset="1" stop-color="#D7B34C"/>
</linearGradient>
<linearGradient id="paint14_linear_16_76" x1="68.3292" y1="95.11" x2="63.9132" y2="10.1238" gradientUnits="userSpaceOnUse">
<stop stop-color="#CFA841"/>
<stop offset="0.18" stop-color="#EACD66"/>
<stop offset="0.21" stop-color="#EBD47A"/>
<stop offset="0.29" stop-color="#EFE9B6"/>
<stop offset="0.44" stop-color="#CDA53E"/>
<stop offset="0.47" stop-color="#D6B658"/>
<stop offset="0.53" stop-color="#E2CB78"/>
<stop offset="0.57" stop-color="#EAD88C"/>
<stop offset="0.6" stop-color="#EDDD94"/>
<stop offset="0.65" stop-color="#E5CC73"/>
<stop offset="0.69" stop-color="#E0C15E"/>
<stop offset="0.72" stop-color="#DFBD56"/>
<stop offset="0.88" stop-color="#F4F6CE"/>
<stop offset="1" stop-color="#D7B34C"/>
</linearGradient>
<linearGradient id="paint15_linear_16_76" x1="71.6622" y1="94.9392" x2="67.2476" y2="9.94797" gradientUnits="userSpaceOnUse">
<stop stop-color="#CFA841"/>
<stop offset="0.18" stop-color="#EACD66"/>
<stop offset="0.21" stop-color="#EBD47A"/>
<stop offset="0.29" stop-color="#EFE9B6"/>
<stop offset="0.44" stop-color="#CDA53E"/>
<stop offset="0.47" stop-color="#D6B658"/>
<stop offset="0.53" stop-color="#E2CB78"/>
<stop offset="0.57" stop-color="#EAD88C"/>
<stop offset="0.6" stop-color="#EDDD94"/>
<stop offset="0.65" stop-color="#E5CC73"/>
<stop offset="0.69" stop-color="#E0C15E"/>
<stop offset="0.72" stop-color="#DFBD56"/>
<stop offset="0.88" stop-color="#F4F6CE"/>
<stop offset="1" stop-color="#D7B34C"/>
</linearGradient>
<linearGradient id="paint16_linear_16_76" x1="72.9301" y1="94.8723" x2="68.5172" y2="9.88416" gradientUnits="userSpaceOnUse">
<stop stop-color="#CFA841"/>
<stop offset="0.18" stop-color="#EACD66"/>
<stop offset="0.21" stop-color="#EBD47A"/>
<stop offset="0.29" stop-color="#EFE9B6"/>
<stop offset="0.44" stop-color="#CDA53E"/>
<stop offset="0.47" stop-color="#D6B658"/>
<stop offset="0.53" stop-color="#E2CB78"/>
<stop offset="0.57" stop-color="#EAD88C"/>
<stop offset="0.6" stop-color="#EDDD94"/>
<stop offset="0.65" stop-color="#E5CC73"/>
<stop offset="0.69" stop-color="#E0C15E"/>
<stop offset="0.72" stop-color="#DFBD56"/>
<stop offset="0.88" stop-color="#F4F6CE"/>
<stop offset="1" stop-color="#D7B34C"/>
</linearGradient>
<linearGradient id="paint17_linear_16_76" x1="69.9531" y1="95.028" x2="65.5385" y2="10.0368" gradientUnits="userSpaceOnUse">
<stop stop-color="#CFA841"/>
<stop offset="0.18" stop-color="#EACD66"/>
<stop offset="0.21" stop-color="#EBD47A"/>
<stop offset="0.29" stop-color="#EFE9B6"/>
<stop offset="0.44" stop-color="#CDA53E"/>
<stop offset="0.47" stop-color="#D6B658"/>
<stop offset="0.53" stop-color="#E2CB78"/>
<stop offset="0.57" stop-color="#EAD88C"/>
<stop offset="0.6" stop-color="#EDDD94"/>
<stop offset="0.65" stop-color="#E5CC73"/>
<stop offset="0.69" stop-color="#E0C15E"/>
<stop offset="0.72" stop-color="#DFBD56"/>
<stop offset="0.88" stop-color="#F4F6CE"/>
<stop offset="1" stop-color="#D7B34C"/>
</linearGradient>
<linearGradient id="paint18_linear_16_76" x1="63.292" y1="95.371" x2="58.876" y2="10.3848" gradientUnits="userSpaceOnUse">
<stop stop-color="#CFA841"/>
<stop offset="0.18" stop-color="#EACD66"/>
<stop offset="0.21" stop-color="#EBD47A"/>
<stop offset="0.29" stop-color="#EFE9B6"/>
<stop offset="0.44" stop-color="#CDA53E"/>
<stop offset="0.47" stop-color="#D6B658"/>
<stop offset="0.53" stop-color="#E2CB78"/>
<stop offset="0.57" stop-color="#EAD88C"/>
<stop offset="0.6" stop-color="#EDDD94"/>
<stop offset="0.65" stop-color="#E5CC73"/>
<stop offset="0.69" stop-color="#E0C15E"/>
<stop offset="0.72" stop-color="#DFBD56"/>
<stop offset="0.88" stop-color="#F4F6CE"/>
<stop offset="1" stop-color="#D7B34C"/>
</linearGradient>
<linearGradient id="paint19_linear_16_76" x1="54.863" y1="95.8113" x2="50.4484" y2="10.8201" gradientUnits="userSpaceOnUse">
<stop stop-color="#CFA841"/>
<stop offset="0.18" stop-color="#EACD66"/>
<stop offset="0.21" stop-color="#EBD47A"/>
<stop offset="0.29" stop-color="#EFE9B6"/>
<stop offset="0.44" stop-color="#CDA53E"/>
<stop offset="0.47" stop-color="#D6B658"/>
<stop offset="0.53" stop-color="#E2CB78"/>
<stop offset="0.57" stop-color="#EAD88C"/>
<stop offset="0.6" stop-color="#EDDD94"/>
<stop offset="0.65" stop-color="#E5CC73"/>
<stop offset="0.69" stop-color="#E0C15E"/>
<stop offset="0.72" stop-color="#DFBD56"/>
<stop offset="0.88" stop-color="#F4F6CE"/>
<stop offset="1" stop-color="#D7B34C"/>
</linearGradient>
<linearGradient id="paint20_linear_16_76" x1="46.5028" y1="96.2457" x2="42.09" y2="11.2576" gradientUnits="userSpaceOnUse">
<stop stop-color="#CFA841"/>
<stop offset="0.18" stop-color="#EACD66"/>
<stop offset="0.21" stop-color="#EBD47A"/>
<stop offset="0.29" stop-color="#EFE9B6"/>
<stop offset="0.44" stop-color="#CDA53E"/>
<stop offset="0.47" stop-color="#D6B658"/>
<stop offset="0.53" stop-color="#E2CB78"/>
<stop offset="0.57" stop-color="#EAD88C"/>
<stop offset="0.6" stop-color="#EDDD94"/>
<stop offset="0.65" stop-color="#E5CC73"/>
<stop offset="0.69" stop-color="#E0C15E"/>
<stop offset="0.72" stop-color="#DFBD56"/>
<stop offset="0.88" stop-color="#F4F6CE"/>
<stop offset="1" stop-color="#D7B34C"/>
</linearGradient>
</defs>
</svg>
