<?xml version="1.0" encoding="UTF-8"?>
<svg id="_レイヤー_1" data-name="レイヤー_1" xmlns="http://www.w3.org/2000/svg" viewBox="0 0 1350 299.65">
  <defs>
    <style>
      .cls-1 {
        fill: #fff;
      }

      .cls-2 {
        fill: #1a1a1a;
      }
    </style>
  </defs>
  <rect class="cls-2" width="1350" height="299.65"/>
  <g>
    <path class="cls-1" d="M188.28,132.33v70.97h-23.72v-67.27c0-12.23-4.82-15.75-12.04-15.75-8.34,0-14.82,5.74-20.57,14.64v68.38h-23.72V66.17l23.72-2.41v53.18c7.6-9.27,16.68-14.45,28.54-14.45,17.42,0,27.8,11.3,27.8,29.83Z"/>
    <path class="cls-1" d="M294.65,189.95l-5,15.75c-10.93-.93-17.97-4.63-21.68-14.27-7.04,10.38-17.6,14.64-29.46,14.64-19.46,0-31.5-12.42-31.5-30.2,0-21.31,15.94-32.8,44.47-32.8h12.41v-5.56c0-12.79-5.74-17.05-18.34-17.05-6.67,0-16.12,1.85-26.13,5.19l-5.37-16.12c12.04-4.63,24.46-7.04,35.39-7.04,26.31,0,37.8,12.04,37.8,33.73v41.14c0,7.97,2.59,10.75,7.41,12.6ZM263.89,176.8v-19.83h-9.82c-15.38,0-22.98,5.56-22.98,17.05,0,9.45,4.82,14.82,13.9,14.82,8.15,0,14.45-4.26,18.9-12.04Z"/>
    <path class="cls-1" d="M387.31,113.98l-10.56,14.27c-6.49-4.82-12.42-7.04-19.83-7.04-13.71,0-22.05,10.01-22.05,33.54s8.71,32.06,22.05,32.06c7.41,0,12.6-2.41,19.83-7.04l10.56,15.01c-8.89,7.23-19.09,11.3-31.69,11.3-28.35,0-45.96-19.64-45.96-50.96s17.6-52.63,45.77-52.63c12.79,0,22.61,3.52,31.87,11.49Z"/>
    <path class="cls-1" d="M490.52,154.19c0,30.95-17.23,51.89-46.14,51.89s-46.14-19.64-46.14-51.89,17.23-51.7,46.33-51.7,45.96,19.64,45.96,51.7ZM423.26,154.19c0,23.53,7.23,33.91,21.12,33.91s21.12-10.56,21.12-33.91-7.23-33.73-20.94-33.73-21.31,10.56-21.31,33.73Z"/>
    <path class="cls-1" d="M582.25,111.39c0,21.12-12.04,36.5-50.59,73.2h53.37l-2.59,18.72h-77.64v-17.42c42.62-43.36,53-55.04,53-72.64,0-11.49-7.23-18.16-17.98-18.16-9.82,0-16.31,4.08-24.09,13.16l-14.45-11.49c10.01-12.97,23.16-20.38,40.4-20.38,25.76,0,40.58,15.57,40.58,35.02Z"/>
    <path class="cls-1" d="M690.84,169.76c0,20.38-17.98,36.32-46.33,36.32s-45.21-15.75-45.21-35.95c0-15.19,8.89-25.2,23.72-31.5-13.34-7.23-18.72-17.23-18.72-29.46,0-20.38,18.53-32.8,40.77-32.8s40.77,11.12,40.77,31.87c0,11.49-6.49,20.94-20.57,28.17,17.05,7.6,25.57,18.53,25.57,33.35ZM666.75,169.76c0-11.67-6.11-16.86-22.79-22.98l-5.74-2.04c-10.01,5.37-15.01,13.34-15.01,24.65,0,11.86,8.52,19.09,21.87,19.09s21.68-7.97,21.68-18.72ZM627.28,109.53c0,10.56,6.67,15.19,18.72,19.64l3.52,1.3c9.82-6.12,13.34-12.23,13.34-21.12,0-9.82-6.11-16.31-17.79-16.31-10.75,0-17.79,5.56-17.79,16.49Z"/>
    <path class="cls-1" d="M793.32,65.99v137.31h-20.94l-1.67-12.42c-5.93,8.9-15.38,15.2-27.98,15.2-24.46,0-37.25-20.57-37.25-51.7s15.2-51.89,39.47-51.89c10.38,0,18.53,4.45,24.65,10.56v-49.66l23.72,2.59ZM769.6,175.5v-44.84c-5.19-6.3-10.75-10.38-18.72-10.38-12.23,0-20.38,10.38-20.38,33.91,0,25.2,7.23,33.91,18.9,33.91,8.71,0,14.64-4.26,20.2-12.6Z"/>
    <path class="cls-1" d="M901.35,161.6h-61.52c1.85,20.01,11.12,26.5,24.09,26.5,8.71,0,15.94-2.78,24.46-8.71l9.82,13.53c-9.64,7.78-21.5,13.16-36.32,13.16-30.39,0-46.7-20.2-46.7-51.14s15.75-52.44,43.55-52.44,43.18,18.53,43.18,49.48c0,3.15-.37,7.04-.56,9.64ZM878.38,145.11c0-16.12-5.74-25.76-19.09-25.76-11.12,0-18.16,7.41-19.46,26.87h38.54v-1.11Z"/>
    <path class="cls-1" d="M989.01,114.17l-9.27,13.9c-8.15-5.19-15.94-7.97-24.65-7.97-9.45,0-14.82,3.89-14.82,9.82,0,6.49,3.89,9.45,20.57,14.08,20.01,5.37,31.32,13.53,31.32,30.95,0,20.38-18.9,31.13-41.32,31.13-16.86,0-30.02-5.74-39.1-13.9l11.86-13.34c7.6,5.74,16.68,9.64,26.68,9.64,10.56,0,17.42-4.45,17.42-11.86,0-8.15-3.89-10.75-22.24-15.94-20.2-5.56-29.09-15.19-29.09-29.65,0-16.31,15.01-28.54,37.8-28.54,14.08,0,25.57,4.45,34.84,11.67Z"/>
    <path class="cls-1" d="M1037.37,70.06c0,7.97-6.12,14.27-15.01,14.27s-14.82-6.3-14.82-14.27,6.11-14.45,14.82-14.45,15.01,6.3,15.01,14.45ZM1034.41,203.3h-23.72v-98.03h23.72v98.03Z"/>
    <path class="cls-1" d="M1147.82,110.46c-7.41,2.59-16.68,3.34-28.35,3.34,11.86,5.37,17.79,12.97,17.79,25.2,0,19.09-14.82,32.98-39.47,32.98-4.26,0-7.97-.37-11.67-1.48-2.41,1.67-4.08,4.26-4.08,7.23,0,3.52,2.04,6.86,11.86,6.86h15.01c21.68,0,35.76,11.67,35.76,27.8,0,19.64-16.86,31.32-48.92,31.32-34.84,0-44.66-11.12-44.66-30.76h21.31c0,9.82,4.26,14.08,23.72,14.08s24.65-5.19,24.65-12.97c0-7.23-5.74-11.67-16.68-11.67h-14.82c-19.64,0-27.98-8.71-27.98-18.9,0-6.86,4.26-13.71,11.49-18.16-12.04-6.3-17.23-15.01-17.23-27.61,0-21.31,16.86-35.21,40.58-35.21,23.16.56,33.91-4.63,45.77-10.93l5.93,18.9ZM1079.44,137.33c0,11.86,6.49,19.27,17.42,19.27s17.42-7.04,17.42-19.46-5.93-18.53-17.79-18.53c-10.75,0-17.05,7.41-17.05,18.72Z"/>
    <path class="cls-1" d="M1241.77,132.33v70.97h-23.72v-67.27c0-12.23-4.63-15.75-12.04-15.75-8.52,0-14.82,5.74-20.57,14.82v68.19h-23.72v-98.03h20.57l1.85,12.79c7.6-9.82,17.42-15.57,29.83-15.57,17.6,0,27.8,11.12,27.8,29.83Z"/>
  </g>
</svg>